<svg width="24" height="24" viewBox="0 0 24 24" fill="none" xmlns="http://www.w3.org/2000/svg">
<path fill-rule="evenodd" clip-rule="evenodd" d="M11.1052 4.5613L7.67505 7.98827L6.54072 6.86834L8.61098 4.78848H3.81131C3.17483 4.78848 2.56442 5.04132 2.11436 5.49138C1.6643 5.94144 1.41147 6.55184 1.41147 7.18832C1.41147 7.8248 1.6643 8.43521 2.11436 8.88527C2.56442 9.33532 3.17483 9.58816 3.81131 9.58816H4.70085V11.1881H3.8209C2.7921 11.142 1.8207 10.7009 1.10896 9.95661C0.397222 9.21231 0 8.22216 0 7.19232C0 6.16249 0.397222 5.17234 1.10896 4.42803C1.8207 3.68373 2.7921 3.24263 3.8209 3.19659H8.62058L6.54072 1.13112L7.67505 0L11.1052 3.43177V4.5613ZM16.6201 24H7.0207L6.22075 23.2V10.4121L7.0207 9.61215H16.6201L17.42 10.4121V23.2L16.6201 24ZM7.82064 22.4001H15.8201V11.212H7.82064V22.4001ZM13.4203 1.6015H23.0196L23.8196 2.40145V15.1878L23.0196 15.9877H19.0199V14.3878H22.2197V3.20139H14.2202V7.98828H12.6203V2.40145L13.4203 1.6015ZM14.2202 12.7879H9.42053V14.3878H14.2202V12.7879ZM9.42053 15.9877H14.2202V17.5876H9.42053V15.9877ZM14.2202 19.1875H9.42053V20.7874H14.2202V19.1875ZM15.8201 4.78848H20.6198V6.38838H15.8201V4.78848ZM20.6198 11.188H19.0199V12.7879H20.6198V11.188ZM17.2824 8.01228V7.98828H20.6198V9.58817H18.8583L17.2824 8.01228Z" fill="#C5C5C5"/>
</svg>
