<svg width="16" height="16" viewBox="0 0 16 16" fill="none" xmlns="http://www.w3.org/2000/svg">
<path d="M11.34 9.70998H12.05L14.72 7.04005V6.32997L13.38 5.00001H12.68L10.86 6.81007H5.86V5.56007L7.71999 3.70997V3L5.71998 1H5.00001L1 5.00001V5.70997L3 7.70998H3.71003L4.84998 6.56007V12.35L5.34998 12.85H10V13.37L11.33 14.71H12.04L14.7101 12.0401V11.33L13.37 10H12.67L10.81 11.85H5.81001V7.84999H10V8.32997L11.34 9.70998ZM13.0301 6.06007L13.66 6.68995L11.66 8.68996L11.0301 8.06007L13.0301 6.06007ZM13.0301 11.0601L13.66 11.69L11.66 13.69L11.0301 13.0601L13.0301 11.0601ZM3.34998 6.65004L2.06 5.34998L5.34998 2.06006L6.65004 3.34998L3.34998 6.65004Z" fill="#EE9D28"/>
</svg>
