/* XPM */
static char *nyan_frame_3[] = {
/* columns rows colors chars-per-pixel */
"25 15 138 2 ",
"   c black",
".  c #00070F",
"X  c #0E0E0E",
"o  c #0B1700",
"O  c #061B02",
"+  c #030C16",
"@  c #02191F",
"#  c #151515",
"$  c #1B1B1B",
"%  c gray11",
"&  c #0B3204",
"*  c #363900",
"=  c #27221C",
"-  c #0B0F2D",
";  c #001122",
":  c #3F1E31",
">  c #03252E",
",  c #1E262E",
"<  c gray15",
"1  c #2A2A2A",
"2  c #2C2C2C",
"3  c #2C2F32",
"4  c gray22",
"5  c #3A3C3E",
"6  c #3C3C3C",
"7  c #490C00",
"8  c #7C0B10",
"9  c #4C2400",
"0  c #4C3100",
"q  c #483F00",
"w  c #403326",
"e  c #145C08",
"r  c #3C7501",
"t  c #191041",
"y  c #18154A",
"u  c #052749",
"i  c #002E5D",
"p  c #212646",
"a  c #373E44",
"s  c #522244",
"d  c #643C64",
"f  c #285059",
"g  c #414141",
"h  c #484848",
"j  c gray30",
"k  c #5C4242",
"l  c #554755",
"z  c #544C54",
"x  c #5E4D5E",
"c  c #5A5A5A",
"v  c #5D5D5D",
"b  c #745D46",
"n  c #634463",
"m  c #614C61",
"M  c gray38",
"N  c #6F6161",
"B  c #6D6D6D",
"V  c gray45",
"C  c #777777",
"Z  c gray48",
"A  c gray49",
"S  c #BF1119",
"D  c #F52A02",
"F  c #FC7800",
"G  c #947256",
"H  c #847373",
"J  c #4D9801",
"K  c #2CCB13",
"L  c #189E45",
"P  c #B4BF00",
"I  c #FBA500",
"U  c #F0D300",
"Y  c #BF9973",
"T  c #263498",
"R  c #165FB9",
"E  c #5536D9",
"W  c #196ED5",
"Q  c #1A70D8",
"!  c #1E7FF7",
"~  c #5247F7",
"^  c #A261A2",
"/  c #B26BB2",
"(  c #C95BAC",
")  c #FF5FC5",
"_  c #C979C9",
"`  c #D17DD1",
"'  c #FF66CC",
"]  c #FF68CE",
"[  c #FF6BD1",
"{  c #FF72D8",
"}  c #FF77DD",
"|  c #0C92B2",
" . c gray51",
".. c #848484",
"X. c #8B8B8B",
"o. c #8D8D8D",
"O. c #9D8888",
"+. c gray57",
"@. c #979797",
"#. c gray60",
"$. c #A69999",
"%. c #AA9999",
"&. c #AF9999",
"*. c #B39999",
"=. c gray70",
"-. c #CE9999",
";. c #DD9999",
":. c #F09999",
">. c #FF9999",
",. c #D8AD82",
"<. c #F0BB99",
"1. c #F0B6A2",
"2. c #FFBBBB",
"3. c #FFBCB9",
"4. c #F0C090",
"5. c #FFCC99",
"6. c #FFC7A2",
"7. c #FFC7A4",
"8. c #D580D5",
"9. c #DC84DC",
"0. c #FF95D5",
"q. c #FFB3CC",
"w. c #E88BE8",
"e. c #FF80E6",
"r. c #FF85EB",
"t. c #FF86EC",
"y. c #FF8AF0",
"u. c #FF8DF3",
"i. c #FF8FF5",
"p. c #FF90F6",
"a. c #FF9DF7",
"s. c #FF92F8",
"d. c #FF94FA",
"f. c #FF97FD",
"g. c #FF99FF",
"h. c #FFA6E6",
"j. c #FFA8E0",
"k. c None",
/* pixels */
"s s s s s s : w w w w w w w w w w w w 3 k.k.k.k.k.",
"S S S S S 8 G 5.3.q.q.q.q.q.q.q.q.q.7.,.4 k.k.k.k.",
"D D D D D 7 4.3.g.g.g.g.) g.' s.g.g.h.5.b k.k.k.k.",
"F F F F F 9 1.g.' s.g.g.g.g.g._ ` u.s.j.b k.k.k.k.",
"I I I I I 0 1.g.g.g.g.g.g.g./ z x ( s.j.b k.k.j k.",
"U U U U U q 1.g.g.g.g.' s.g.d  .o.z 9.j.b + A #.< ",
"P P P P P * 1.g.g.t.g.g.g.g.d  .#.#.4 < <  .#.#.< ",
"J J J J r o 1.g.g.{ g.g.{ ` m X.#.#.#.#.#.#.#.#.M ",
"K K e & O   1.} e.g.g.g.e.^ v #.=.C  .#.#.#.=.c @.",
"L # Z +.B , 1.g.g.g.s.s.g.^ v &.H <  .#.c A < N *.",
"| f j 4 > @ <.j.} s.t.t.g.^ v :.;.B X. .C #.M -.>.",
"! Q R R W u <.7.0.g.g.g.g.w.n O.&.g % % # < 1 $.k ",
"~ ~ ~ ~ ~ y 4 Y Y Y Y Y Y Y Y = V V V V V V V a k.",
"E E E E E t Y , ; X j % k.k.k.k.; 1 j . k.4 4 k.k.",
"T T T T T - < p i k.< X k.k.k.k.k.k.1 k.k., % k.k."
};
