<svg width="16" height="16" viewBox="0 0 16 16" fill="none" xmlns="http://www.w3.org/2000/svg">
<path d="M2.80747 14.9754C2.57144 14.9721 2.33851 14.9211 2.12271 14.8254C1.90692 14.7297 1.71273 14.5913 1.55183 14.4186C1.23875 14.1334 1.04458 13.7408 1.00799 13.3189C0.966469 12.8828 1.09293 12.4473 1.36158 12.1013C2.56804 10.8289 4.94755 8.4494 6.67836 6.75479C6.31007 5.75887 6.32729 4.66127 6.72661 3.67739C7.05499 2.85876 7.63893 2.16805 8.39153 1.70807C8.98195 1.31706 9.66055 1.07944 10.3659 1.01673C11.0713 0.954022 11.7812 1.06819 12.4313 1.34892L13.0485 1.6162L10.1827 4.56738L11.4374 5.82582L14.3811 2.94887L14.6484 3.56788C14.8738 4.08976 14.9933 4.65119 14.9999 5.21961C15.0066 5.78802 14.9004 6.35211 14.6874 6.87915C14.4763 7.40029 14.1626 7.87368 13.7649 8.27122C13.5396 8.49169 13.2907 8.68653 13.0225 8.85218C12.4676 9.22275 11.8327 9.45636 11.1699 9.5338C10.5071 9.61124 9.83546 9.5303 9.21007 9.29764C8.11219 10.4113 5.37167 13.1704 3.89143 14.5522C3.5945 14.8219 3.20856 14.9726 2.80747 14.9754ZM10.7451 1.92802C10.0873 1.92637 9.44383 2.12018 8.89639 2.48485C8.68289 2.6152 8.48461 2.76897 8.30522 2.9433C7.82813 3.42423 7.5095 4.03953 7.39206 4.70669C7.27462 5.37385 7.36398 6.06098 7.64816 6.67591L7.78366 6.97288L7.55072 7.20025C5.81249 8.89672 3.28171 11.4201 2.06504 12.7045C1.9567 12.8658 1.91037 13.0608 1.93459 13.2535C1.95881 13.4463 2.05195 13.6238 2.19682 13.7532C2.28029 13.8462 2.38201 13.9211 2.49565 13.9731C2.59581 14.0184 2.70408 14.043 2.81397 14.0455C2.98089 14.0413 3.14068 13.977 3.26407 13.8646C4.83711 12.3964 7.87646 9.32641 8.76832 8.42435L8.99754 8.19326L9.29266 8.32783C9.80642 8.56732 10.3734 8.66985 10.9385 8.62545C11.5036 8.58106 12.0476 8.39125 12.5176 8.07447C12.7316 7.9426 12.9299 7.78694 13.1088 7.61045C13.4186 7.30153 13.6634 6.93374 13.8288 6.52874C13.9943 6.12375 14.077 5.68974 14.0721 5.25228C14.0722 5.03662 14.0507 4.82148 14.0081 4.61007L11.4309 7.12508L8.87968 4.57759L11.3947 1.98834C11.1807 1.94674 10.9631 1.92653 10.7451 1.92802Z" fill="#424242"/>
</svg>
