<?xml version="1.0" standalone="no"?>
<!DOCTYPE svg PUBLIC "-//W3C//DTD SVG 20010904//EN"
 "http://www.w3.org/TR/2001/REC-SVG-20010904/DTD/svg10.dtd">
<svg version="1.0" xmlns="http://www.w3.org/2000/svg"
 width="666.000000pt" height="666.000000pt" viewBox="0 0 666.000000 666.000000"
 preserveAspectRatio="xMidYMid meet">
<metadata>
Created by potrace 1.11, written by Peter Selinger 2001-2013
</metadata>
<g transform="translate(0.000000,666.000000) scale(0.100000,-0.100000)"
fill="#000000" stroke="none">
<path d="M911 6594 c-156 -33 -299 -132 -404 -277 -75 -103 -145 -291 -162
-436 -4 -30 -9 -63 -11 -75 -3 -12 -5 -93 -5 -181 0 -147 2 -195 17 -310 2
-22 7 -58 10 -80 2 -22 11 -74 19 -115 8 -41 16 -86 19 -100 8 -47 37 -165 66
-272 l30 -106 -44 -94 c-66 -141 -153 -380 -182 -503 -1 -5 -7 -30 -13 -55 -7
-25 -14 -56 -16 -70 -3 -14 -10 -45 -15 -70 -60 -283 -78 -677 -44 -960 4 -30
8 -64 9 -75 1 -11 5 -40 9 -65 4 -25 9 -56 11 -70 9 -59 16 -92 45 -205 17
-66 32 -129 35 -139 10 -43 60 -187 97 -279 100 -254 228 -484 402 -722 55
-75 58 -80 160 -198 418 -485 1006 -842 1641 -996 110 -27 287 -60 360 -67 17
-1 66 -6 110 -11 93 -9 472 -9 560 0 140 14 173 19 223 28 29 6 65 12 80 14
156 21 582 153 719 224 10 5 68 34 129 64 118 59 132 67 246 136 60 36 156
102 203 138 6 4 40 30 75 58 278 212 551 516 744 828 173 279 300 577 377 882
17 66 32 127 34 135 1 8 5 31 9 50 3 19 8 46 11 59 2 12 7 44 10 70 4 25 8 57
10 71 27 168 27 679 1 815 -2 11 -7 42 -10 68 -4 27 -10 59 -12 70 -3 12 -7
40 -10 62 -8 58 -68 286 -103 392 -67 204 -166 421 -289 633 -27 46 -164 250
-188 279 -7 9 -43 54 -81 101 -80 100 -296 321 -403 410 -241 204 -519 376
-805 499 -84 36 -364 135 -415 146 -8 2 -62 15 -120 28 -58 14 -125 28 -150
32 -50 7 -87 13 -127 19 -116 18 -271 29 -428 29 -123 1 -316 -9 -360 -17 -11
-2 -46 -7 -78 -10 -32 -4 -92 -13 -135 -21 -83 -15 -93 -17 -162 -34 -25 -7
-56 -14 -70 -17 -35 -7 -183 -52 -260 -79 l-65 -23 -50 30 c-124 72 -413 209
-550 260 -157 58 -224 77 -324 94 -18 3 -43 8 -55 11 -53 12 -264 11 -325 -3z
m474 -549 c39 -9 79 -18 90 -20 43 -10 215 -69 215 -74 -1 -3 -46 -35 -102
-71 -153 -98 -335 -246 -483 -393 -221 -221 -356 -393 -520 -667 -39 -64 -39
-64 -46 -35 -3 17 -23 102 -42 191 -20 89 -39 185 -43 215 -3 30 -9 58 -11 62
-3 5 -7 66 -8 135 -6 219 36 324 184 473 112 111 228 175 358 195 21 3 40 8
42 10 11 10 304 -6 366 -21z"/>
</g>
</svg>
