<?xml version="1.0" encoding="UTF-8" standalone="no"?>
<!-- Created with Inkscape (http://www.inkscape.org/) -->

<svg
   width="120mm"
   height="22mm"
   viewBox="0 0 120 22"
   version="1.1"
   id="svg5"
   sodipodi:docname="logo.svg"
   inkscape:version="1.1.2 (0a00cf5339, 2022-02-04, custom)"
   xmlns:inkscape="http://www.inkscape.org/namespaces/inkscape"
   xmlns:sodipodi="http://sodipodi.sourceforge.net/DTD/sodipodi-0.dtd"
   xmlns="http://www.w3.org/2000/svg"
   xmlns:svg="http://www.w3.org/2000/svg">
  <sodipodi:namedview
     id="namedview7"
     pagecolor="#ffffff"
     bordercolor="#666666"
     borderopacity="1.0"
     inkscape:pageshadow="2"
     inkscape:pageopacity="0.0"
     inkscape:pagecheckerboard="0"
     inkscape:document-units="mm"
     showgrid="false"
     inkscape:zoom="2.1946698"
     inkscape:cx="229.19165"
     inkscape:cy="136.467"
     inkscape:window-width="1920"
     inkscape:window-height="1046"
     inkscape:window-x="0"
     inkscape:window-y="0"
     inkscape:window-maximized="1"
     inkscape:current-layer="layer1"
     showguides="true"
     inkscape:guide-bbox="true" />
  <defs
     id="defs2">
    <rect
       x="476.30338"
       y="108.35915"
       width="486.18634"
       height="138.30417"
       id="rect5923" />
  </defs>
  <g
     inkscape:label="Layer 1"
     inkscape:groupmode="layer"
     id="layer1">
    <text
       xml:space="preserve"
       transform="scale(0.26458333)"
       id="text5921"
       style="font-size:40px;line-height:1.25;font-family:sans-serif;letter-spacing:0px;white-space:pre;shape-inside:url(#rect5923)" />
    <path
       d="m 29.027539,18.586935 c 0,0.148167 0.0635,0.1905 0.169333,0.1905 h 5.207009 c 1.714502,0 2.836337,-1.121835 2.836337,-2.878671 V 8.0459182 c 0,-1.7568361 -1.121835,-2.8786712 -2.836337,-2.8786712 h -5.207009 c -0.105833,0 -0.169333,0.042333 -0.169333,0.1905003 z m 0.825501,-0.402167 c -0.148167,0 -0.1905,-0.0635 -0.1905,-0.169334 V 5.9292482 c 0,-0.1058335 0.04233,-0.1693336 0.1905,-0.1693336 h 4.550841 c 1.418169,0 2.201336,0.8678347 2.201336,2.3071703 v 7.8105121 c 0,1.439336 -0.783167,2.307171 -2.201336,2.307171 z"
       style="font-size:10.5833px;-inkscape-font-specification:'Rajdhani, Light';letter-spacing:0px;fill:#79c4eb;stroke-width:0.264583"
       id="path10303" />
    <path
       d="m 41.579404,5.3577473 c 0,-0.1481669 -0.0635,-0.1905003 -0.169334,-0.1905003 h -0.296334 c -0.105833,0 -0.169333,0.042333 -0.169333,0.1905003 V 18.586935 c 0,0.148167 0.0635,0.1905 0.169333,0.1905 h 0.296334 c 0.105834,0 0.169334,-0.04233 0.169334,-0.1905 z"
       style="font-size:10.5833px;-inkscape-font-specification:'Rajdhani, Light';letter-spacing:0px;fill:#79c4eb;stroke-width:0.264583"
       id="path10266" />
    <path
       d="m 46.32073,12.448592 c -0.148167,0 -0.190501,-0.0635 -0.190501,-0.169334 V 5.9292482 c 0,-0.1058335 0.04233,-0.1693336 0.190501,-0.1693336 h 4.106339 c 1.418169,0 2.201337,0.8678347 2.201337,2.3071703 v 2.0743371 c 0,1.439335 -0.783168,2.30717 -2.201337,2.30717 z m -0.359834,6.328843 c 0.105833,0 0.169333,-0.04233 0.169333,-0.1905 v -5.376342 c 0,-0.105833 0.04233,-0.169333 0.190501,-0.169333 h 3.873506 l 2.582337,5.545675 c 0.08467,0.148167 0.148167,0.1905 0.275167,0.1905 h 0.381001 c 0.105833,0 0.148167,-0.0635 0.08467,-0.1905 l -2.603504,-5.503342 v -0.08467 c 1.439335,-0.1905 2.349503,-1.248835 2.349503,-2.836338 V 8.0459182 c 0,-1.7568361 -1.121835,-2.8786712 -2.836338,-2.8786712 h -4.762507 c -0.105834,0 -0.169334,0.042333 -0.169334,0.1905003 V 18.586935 c 0,0.148167 0.0635,0.1905 0.169334,0.1905 z"
       style="font-size:10.5833px;-inkscape-font-specification:'Rajdhani, Light';letter-spacing:0px;fill:#79c4eb;stroke-width:0.264583"
       id="path10268" />
    <path
       d="m 60.290767,18.777435 c 0.105834,0 0.169334,-0.04233 0.211667,-0.1905 l 4.10634,-13.2291877 c 0.04233,-0.1481669 -0.02117,-0.1905003 -0.127,-0.1905003 h -0.317501 c -0.105833,0 -0.169333,0.042333 -0.211667,0.1905003 L 60.0791,17.8461 H 59.99443 L 56.120927,5.3577473 C 56.078594,5.2095804 56.015094,5.167247 55.90926,5.167247 h -0.3175 c -0.105834,0 -0.169334,0.042333 -0.127,0.1905003 l 4.106339,13.2291877 c 0.04233,0.148167 0.105834,0.1905 0.211667,0.1905 z"
       style="font-size:10.5833px;-inkscape-font-specification:'Rajdhani, Light';letter-spacing:0px;fill:#79c4eb;stroke-width:0.264583"
       id="path10270" />
    <path
       d="m 67.910768,5.3577473 c 0,-0.1481669 -0.0635,-0.1905003 -0.169333,-0.1905003 h -0.296334 c -0.105834,0 -0.169334,0.042333 -0.169334,0.1905003 V 18.586935 c 0,0.148167 0.0635,0.1905 0.169334,0.1905 h 0.296334 c 0.105833,0 0.169333,-0.04233 0.169333,-0.1905 z"
       style="font-size:10.5833px;-inkscape-font-specification:'Rajdhani, Light';letter-spacing:0px;fill:#79c4eb;stroke-width:0.264583"
       id="path10272" />
    <path
       d="m 71.826592,15.898764 c 0,1.756836 1.121835,2.878671 2.836338,2.878671 h 2.540004 c 1.714503,0 2.836338,-1.121835 2.836338,-2.878671 v -1.121835 c 0,-4.148673 -7.577679,-2.24367 -7.577679,-5.4821755 V 8.0670849 c 0,-1.4393356 0.783168,-2.3071703 2.201337,-2.3071703 h 2.540004 c 1.418169,0 2.201337,0.8678347 2.201337,2.3071703 v 0.6138343 c 0,0.1481669 0.0635,0.1905003 0.169333,0.1905003 h 0.296334 c 0.105834,0 0.169334,-0.042333 0.169334,-0.1905003 v -0.635001 c 0,-1.7568361 -1.121835,-2.8786712 -2.836338,-2.8786712 H 74.66293 c -1.714503,0 -2.836338,1.1218351 -2.836338,2.8786712 v 1.270002 c 0,3.8100058 7.577679,1.8838368 7.577679,5.5033418 v 1.058335 c 0,1.439336 -0.783168,2.307171 -2.201337,2.307171 H 74.66293 c -1.418169,0 -2.201337,-0.867835 -2.201337,-2.307171 v -0.825501 c 0,-0.148167 -0.0635,-0.1905 -0.169334,-0.1905 h -0.296333 c -0.105834,0 -0.169334,0.04233 -0.169334,0.1905 z"
       style="font-size:10.5833px;-inkscape-font-specification:'Rajdhani, Light';letter-spacing:0px;fill:#79c4eb;stroke-width:0.264583"
       id="path10274" />
    <path
       d="m 84.314961,18.777435 c 0.105833,0 0.169333,-0.04233 0.169333,-0.1905 v -6.28651 c 0,-0.105834 0.04233,-0.169334 0.190501,-0.169334 h 6.561677 c 0.148167,0 0.1905,0.0635 0.1905,0.169334 v 6.28651 c 0,0.148167 0.0635,0.1905 0.169334,0.1905 h 0.296333 c 0.105834,0 0.169334,-0.04233 0.169334,-0.1905 V 5.3577473 c 0,-0.1481669 -0.0635,-0.1905003 -0.169334,-0.1905003 h -0.296333 c -0.105834,0 -0.169334,0.042333 -0.169334,0.1905003 V 11.36909 c 0,0.105834 -0.04233,0.169334 -0.1905,0.169334 h -6.561677 c -0.148167,0 -0.190501,-0.0635 -0.190501,-0.169334 V 5.3577473 c 0,-0.1481669 -0.0635,-0.1905003 -0.169333,-0.1905003 h -0.296334 c -0.105834,0 -0.169334,0.042333 -0.169334,0.1905003 V 18.586935 c 0,0.148167 0.0635,0.1905 0.169334,0.1905 z"
       style="font-size:10.5833px;-inkscape-font-specification:'Rajdhani, Light';letter-spacing:0px;fill:#79c4eb;stroke-width:0.264583"
       id="path10276" />
  </g>
</svg>
