/* XPM */
static char *nyan_frame_1[] = {
/* columns rows colors chars-per-pixel */
"25 15 149 2 ",
"   c black",
".  c #070B0F",
"X  c #0C0C0C",
"o  c #041C0C",
"O  c #000810",
"+  c #070917",
"@  c #0F1011",
"#  c #02191F",
"$  c #111111",
"%  c #161616",
"&  c #082903",
"*  c #142700",
"=  c #083919",
"-  c #292B00",
";  c #3C3400",
":  c #120B2D",
">  c #001020",
",  c #3F1E31",
"<  c #172635",
"1  c #222222",
"2  c gray15",
"3  c #2B2525",
"4  c #2A2A2A",
"5  c gray18",
"6  c #3E2525",
"7  c #2C2F32",
"8  c gray22",
"9  c #3A3C3E",
"0  c gray24",
"q  c #490C00",
"w  c #7C0B10",
"e  c #4C2400",
"r  c #4C3100",
"t  c #483F00",
"y  c #403326",
"u  c #4B3C2D",
"i  c #423B34",
"p  c #3D4100",
"a  c #615600",
"s  c #09264A",
"d  c #1D2877",
"f  c #322E75",
"g  c #522244",
"h  c #434343",
"j  c #464646",
"k  c #4C4646",
"l  c gray29",
"z  c gray30",
"x  c #514C51",
"c  c gray34",
"v  c #54575A",
"b  c #5D5D5D",
"n  c #745D46",
"m  c #775E5E",
"M  c #614C61",
"N  c #6D4C6D",
"B  c #625962",
"V  c gray38",
"C  c #646464",
"Z  c #686868",
"A  c #7B6C6C",
"S  c gray45",
"D  c #767676",
"F  c #7B7B7B",
"G  c gray50",
"H  c #BF1119",
"J  c #F52A02",
"K  c #FC7800",
"L  c #947256",
"P  c #26B210",
"I  c #438500",
"U  c #2CCB13",
"Y  c #20D15C",
"T  c #889000",
"R  c #C4AC00",
"E  c #FBA500",
"W  c #F0D300",
"Q  c #BF9973",
"!  c #202C81",
"~  c #263498",
"^  c #432AAB",
"/  c #5536D9",
"(  c #1E7FF7",
")  c #4D43E9",
"_  c #5247F7",
"`  c #885788",
"'  c #A261A2",
"]  c #AA66AA",
"[  c #AE68AE",
"{  c #FF5FC5",
"}  c #C576C5",
"|  c #D17DD1",
" . c #FF66CC",
".. c #F069C9",
"X. c #FF68CE",
"o. c #E073CD",
"O. c #FF6BD1",
"+. c #FF72D8",
"@. c #FF77DD",
"#. c #FF7CE2",
"$. c #0A819C",
"%. c #0EA7CB",
"&. c #1E80F7",
"*. c #868686",
"=. c #888888",
"-. c gray56",
";. c gray59",
":. c gray60",
">. c #A68F8F",
",. c #A09999",
"<. c #A89999",
"1. c #B09999",
"2. c #B59999",
"3. c #A0A0A0",
"4. c gray65",
"5. c #D79999",
"6. c #F69999",
"7. c #FF9999",
"8. c #D8AD82",
"9. c #F0BB99",
"0. c #F0B6A2",
"q. c #FFBBBB",
"w. c #FFBCB9",
"e. c #F0C090",
"r. c #FFCC99",
"t. c #FFC7A2",
"y. c #FFC7A4",
"u. c #D882D8",
"i. c #FF95D5",
"p. c #FFB3CC",
"a. c #E086E0",
"s. c #FF80E6",
"d. c #FF85EB",
"f. c #FF86EC",
"g. c #FF8AF0",
"h. c #FF8DF3",
"j. c #FF8FF5",
"k. c #F794F7",
"l. c #FF90F6",
"z. c #FF9DF7",
"x. c #FF92F8",
"c. c #FF94FA",
"v. c #FF97FD",
"b. c #FF99FF",
"n. c #FFA6E6",
"m. c #FFA8E0",
"M. c #FFA8E2",
"N. c gray81",
"B. c None",
/* pixels */
"g g g g g g , y y y y y y y y y y y y 7 B.B.B.B.B.",
"H H H H H w L r.w.p.p.p.p.p.p.p.p.p.y.8.8 B.B.B.B.",
"J J J J J q e.w.b.b.b.b.{ b. .x.b.b.m.r.n B.B.B.B.",
"K K K K K e 0.b. .x.b.b.b.b.u.} x.h.x.m.n B.B.B.B.",
"E E E E E r 0.b.b.b.b.b.b.| M z ] #.x.m.n B.l B.B.",
"R ; ; a W t 0.b.b.b.b. .x.' b ;.B [ b.m.n V :.l B.",
"T 8 -.1 p - 0.b.b.f.b.b.b.' b :.:.b 1 4 V :.:.l B.",
"I * 8 *.4   0.b.b.+.b.b...N F :.:.:.:.:.:.:.:.S B.",
"U P & 8 =.1 0.#.s.b.b.b.o.8 :.3.4.Z :.:.:.N.j :.4 ",
"Y Y Y = o   0.b.b.b.h.x.a.8 <.>.2 V :.D Z 8 k 2.3 ",
"%.%.%.%.$.# 9.m.@.x.f.f.a.8 5.6.*.F :.V :.b 2.7.6 ",
"&.&.&.&.&.s 9.y.i.b.b.b.k.` A 1.V % 1 X 4 X ,.m B.",
"_ _ _ ) f 1 i Q Q Q Q Q Q Q u V S S S S S S v B.B.",
"/ / / ^ l :.j : O l 4 > B.B.B.. l 1 B.% l % B.B.B.",
"~ ~ ~ d % 1 O ! > 1 < B.B.B.B.B.2 % B.B.1 B.B.B.B."
};
