/* XPM */
static char *nyan_frame_4[] = {
/* columns rows colors chars-per-pixel */
"25 15 136 2 ",
"   c #00070E",
".  c #07090A",
"X  c #070B0F",
"o  c #0C0C0C",
"O  c #000A14",
"+  c #100D1C",
"@  c #0F1011",
"#  c #111111",
"$  c gray9",
"%  c #152900",
"&  c #0B3204",
"*  c #180F3E",
"=  c #032D37",
"-  c #192633",
";  c #202020",
":  c gray15",
">  c #2B2525",
",  c #2A2A2A",
"<  c #3E2525",
"1  c #3F3127",
"2  c #3C3229",
"3  c gray20",
"4  c gray22",
"5  c #3F3F3F",
"6  c #431C38",
"7  c #403326",
"8  c #4B3C2D",
"9  c #284E00",
"0  c #1B7F3D",
"q  c #626800",
"w  c #764939",
"e  c #1E2974",
"r  c #322E75",
"t  c #522244",
"y  c #065062",
"u  c #414141",
"i  c #464646",
"p  c #4C4646",
"a  c gray29",
"s  c gray30",
"d  c #584E44",
"f  c #514C51",
"g  c gray34",
"h  c #54575A",
"j  c #5D5D5D",
"k  c #775E5E",
"l  c #5B5E61",
"z  c #614C61",
"x  c #6D4C6D",
"c  c #625962",
"v  c gray38",
"b  c #646464",
"n  c #686868",
"m  c #7B6C6C",
"M  c #6F706F",
"N  c gray45",
"B  c #767676",
"V  c #7B7B7B",
"C  c gray49",
"Z  c #851601",
"A  c #930D13",
"S  c #BF1119",
"D  c #F52A02",
"F  c #894100",
"G  c #885900",
"H  c #827300",
"J  c #FC7800",
"K  c #1B800C",
"L  c #4D9801",
"P  c #2CCB13",
"I  c #B4BF00",
"U  c #FBA500",
"Y  c #F0D300",
"T  c #B28E6B",
"R  c #B6926E",
"E  c #BF9973",
"W  c #212E87",
"Q  c #263498",
"!  c #432AAB",
"~  c #104586",
"^  c #1A5091",
"/  c #1A5195",
"(  c #5536D9",
")  c #1D7EF5",
"_  c #4D43E9",
"`  c #5247F7",
"'  c #885788",
"]  c #AA5599",
"[  c #A261A2",
"{  c #AE68AE",
"}  c #C576C5",
"|  c #D17DD1",
" . c #FF68CE",
".. c #FF6DD3",
"X. c #FF77DD",
"o. c #FF79DF",
"O. c #FF7BE1",
"+. c #FF7DE3",
"@. c gray59",
"#. c gray60",
"$. c #A68F8F",
"%. c #A09999",
"&. c #A89999",
"*. c #B09999",
"=. c #B59999",
"-. c #A0A0A0",
";. c gray65",
":. c #D79999",
">. c #F69999",
",. c #FF9999",
"<. c #F7C694",
"1. c #FFCA9E",
"2. c #FFC5A7",
"3. c #FFC1AF",
"4. c #D882D8",
"5. c #E083DD",
"6. c #FFA4C8",
"7. c #FFB3CC",
"8. c #FFAFD2",
"9. c #E086E0",
"0. c #FF80E6",
"q. c #FF83E9",
"w. c #F08AE9",
"e. c #FF8EEB",
"r. c #FF88EE",
"t. c #FF8AF0",
"y. c #FF8EF4",
"u. c #F794F7",
"i. c #FF90F6",
"p. c #FF94FA",
"a. c #FF97FD",
"s. c #FF9CF9",
"d. c #FF99FF",
"f. c #FFA0F0",
"g. c gray81",
"h. c None",
/* pixels */
"t t t t t 6 1 7 7 7 7 7 7 7 7 7 1 1 1 h.h.h.h.h.h.",
"S S S S A w <.3.7.7.7.7.7.7.7.7.7.3.<.d h.h.h.h.h.",
"D D D D Z T 2.f.d.d.d. .i.+.+.d.s.f.2.T h.h.h.h.h.",
"J J J J F T s.o.+.s.d.d.d.s.| } i.y.s.T h.h.h.h.h.",
"U U U U G T s.d.d.d.d.d.d.| z f ] 0.s.T h.h.s h.h.",
"Y Y Y Y H T s.d.d.d.+.+.d.[ j @.c { s.T   l #.a h.",
"I I I I q T s.d.r.d.d.d.d.[ j #.#.j : : v #.#.s h.",
"L L L 9 % T s.s.o.d.d.o.w.x V #.#.#.#.#.#.#.#.N h.",
"P K & M 5 T e...d.d.d.r.5.4 #.-.-.v #.#.#.g.p #.: ",
"0 l C N 5 T s.d.d.y.r.d.5.4 &.$.: j #.V v 5 p *.> ",
": #.: y = T 8.r.r.y.+.d.9.4 :.>.V @.#.v #.j *.,.< ",
"/ : ^ ) ~ T 1.6.y.d.d.d.u.' m *.v $ : o : o %.k h.",
"` ` ` _ r : R E E E E E E E 8 v N N N N N N h h.h.",
"( ( ( ! i #.+ * 3 u X h.h.h.h.X s : h.# s # h.h.h.",
"Q Q Q e @ : e W - ; h.h.h.h.h.h.: # h.h.: . h.h.h."
};
