/* XPM */
static char *nyan_frame_2[] = {
/* columns rows colors chars-per-pixel */
"25 15 136 2 ",
"   c #00070E",
".  c #07090A",
"X  c #070B0F",
"o  c #0C0C0C",
"O  c #000A14",
"+  c #100D1C",
"@  c #0F1011",
"#  c #111111",
"$  c gray9",
"%  c #152900",
"&  c #083417",
"*  c #180F3E",
"=  c #032D37",
"-  c #202020",
";  c #252525",
":  c #2B2525",
">  c #2A2A2A",
",  c #3E2525",
"<  c #3F3127",
"1  c #3C3229",
"2  c gray20",
"3  c gray22",
"4  c #3F3F3F",
"5  c #431C38",
"6  c #403326",
"7  c #4B3C2D",
"8  c #254900",
"9  c #227C13",
"0  c #626800",
"q  c #6C720A",
"w  c #6F7509",
"e  c #764939",
"r  c #1E2974",
"t  c #322E75",
"y  c #522244",
"u  c #075568",
"i  c #414141",
"p  c #464646",
"a  c #4C4646",
"s  c gray29",
"d  c gray30",
"f  c #584E44",
"g  c #514C51",
"h  c gray34",
"j  c #54575A",
"k  c #5D5D5D",
"l  c #775E5E",
"z  c #5B5E61",
"x  c #614C61",
"c  c #6D4C6D",
"v  c #625962",
"b  c gray38",
"n  c #646464",
"m  c #686868",
"M  c #7B6C6C",
"N  c #6F706F",
"B  c gray45",
"V  c #767676",
"C  c #7B7B7B",
"Z  c gray49",
"A  c #851601",
"S  c #930D13",
"D  c #BF1119",
"F  c #F52A02",
"G  c #894100",
"H  c #885900",
"J  c #827300",
"K  c #FC7800",
"L  c #14843A",
"P  c #20D15C",
"I  c #B2BD00",
"U  c #FBA500",
"Y  c #F0D300",
"T  c #B28E6B",
"R  c #B6926E",
"E  c #BF9973",
"W  c #212E87",
"Q  c #263498",
"!  c #432AAB",
"~  c #104586",
"^  c #5536D9",
"/  c #1E7FF7",
"(  c #4D43E9",
")  c #5247F7",
"_  c #885788",
"`  c #AA5599",
"'  c #A261A2",
"]  c #AE68AE",
"[  c #C576C5",
"{  c #D17DD1",
"}  c #FF68CE",
"|  c #FF6DD3",
" . c #FF77DD",
".. c #FF79DF",
"X. c #FF7BE1",
"o. c #FF7DE3",
"O. c #0EA7CB",
"+. c #1E80F7",
"@. c gray59",
"#. c gray60",
"$. c #A68F8F",
"%. c #A09999",
"&. c #A89999",
"*. c #B09999",
"=. c #B59999",
"-. c #A0A0A0",
";. c gray65",
":. c #D79999",
">. c #F69999",
",. c #FF9999",
"<. c #F7C694",
"1. c #FFCA9E",
"2. c #FFC5A7",
"3. c #FFC1AF",
"4. c #D882D8",
"5. c #E083DD",
"6. c #FFA4C8",
"7. c #FFB3CC",
"8. c #FFAFD2",
"9. c #E086E0",
"0. c #FF80E6",
"q. c #FF83E9",
"w. c #F08AE9",
"e. c #FF8EEB",
"r. c #FF88EE",
"t. c #FF8AF0",
"y. c #FF8EF4",
"u. c #F794F7",
"i. c #FF90F6",
"p. c #FF94FA",
"a. c #FF97FD",
"s. c #FF9CF9",
"d. c #FF99FF",
"f. c #FFA0F0",
"g. c gray81",
"h. c None",
/* pixels */
"y y y y y 5 < < < < 6 6 6 6 6 6 < < < h.h.h.h.h.h.",
"D D D D S e <.3.7.7.7.7.7.7.7.7.7.3.<.f h.h.h.h.h.",
"F F F F A T 2.f.s.d.d.} y.X.X.d.s.f.2.T h.h.h.h.h.",
"K K K K G T s...0.s.d.d.s.d.4.[ i.y.s.T h.h.h.h.h.",
"U U U U H T s.d.d.d.d.d.s.{ x g ` 0.s.T h.h.d h.h.",
"Y Y Y Y J T s.d.d.d.X.X.d.' k @.v ] s.T   z #.d h.",
"w ; w I 0 T s.d.0.s.d.d.d.' k #.#.k ; ; b #.#.d h.",
"; #.> 8 % T s.d...d.d...w.c C #.#.#.#.#.#.#.#.B h.",
"9 k C B 4 T y.| d.d.d.0.9.3 #.-.;.m #.#.#.g.a #.; ",
"P L & N 4 T s.s.d.d.r.d.9.3 &.$.; m #.C m 3 a *.: ",
"O.O.O.u = T 8.0.0.y.X.d.9.3 :.>.Z Z #.b #.z *.,., ",
"+.+./ / ~ T 1.6.i.d.s.d.u._ M *.b $ ; o ; o %.l h.",
") ) ) ( t ; R E E E E E E E 7 b B B B B B B j h.h.",
"^ ^ ^ ! s #.+ * 2 i X h.h.h.h.X d ; h.# d @ h.h.h.",
"Q Q Q r @ ; r W h.- h.h.h.h.h.h.; # h.h.; . h.h.h."
};
