/* XPM */
static char *rainbow[] = {
/* columns rows colors chars-per-pixel */
"8 15 22 1 ",
"  c #522244",
". c #BF1119",
"X c #F52A02",
"o c #FC7800",
"O c #FBA500",
"+ c #FCA500",
"@ c #F0D300",
"# c #B4BF00",
"$ c #B5BF00",
"% c #4D9801",
"& c #4E9802",
"* c #4E9801",
"= c #2CCB13",
"- c #20D15C",
"; c #0EA7CB",
": c #0EA6CB",
"> c #1E7FF7",
", c #1E80F7",
"< c #5247F7",
"1 c #5536D9",
"2 c #263498",
"T c None",
/* pixels */
"TTT     ",
"TTTT....",
"TTTXXXXX",
"TToooooo",
"TTTOO+O+",
"TTTT@@@@",
"TTT##$##",
"TT&*&&&&",
"TTT=====",
"TTTT----",
"TTT:;;:;",
"TT,>,,,,",
"TTT<<<<<",
"TTTT1111",
"TTT22222"
};
