<svg width="16" height="16" viewBox="0 0 16 16" fill="none" xmlns="http://www.w3.org/2000/svg">
<path fill-rule="evenodd" clip-rule="evenodd" d="M4.00024 2H12.0002V6C12.3418 6.03511 12.6777 6.11234 13.0002 6.22998V1H3.00024V9.47998L4.00024 7.72998V2ZM6.14026 10L5.00024 8L4.00024 9.75L3.29028 11L1.00024 15H9.00024L6.71021 11L6.14026 10ZM2.72021 14L4.44019 11L5.00024 10L5.5603 11L7.28027 14H2.72021ZM9.55577 7.58984C10.1313 7.20526 10.808 7 11.5002 7C12.4285 7 13.3187 7.36877 13.9751 8.02515C14.6315 8.68152 15.0002 9.57174 15.0002 10.5C15.0002 11.1922 14.795 11.8689 14.4104 12.4445C14.0258 13.02 13.4791 13.4686 12.8396 13.7335C12.2 13.9984 11.4963 14.0678 10.8174 13.9327C10.1384 13.7977 9.51485 13.4643 9.02537 12.9749C8.53589 12.4854 8.20253 11.8618 8.06748 11.1829C7.93244 10.5039 8.0018 9.80019 8.2667 9.16064C8.53161 8.5211 8.98019 7.97443 9.55577 7.58984ZM10.1113 12.5786C10.5224 12.8533 11.0058 13 11.5002 13C12.1633 13 12.7992 12.7367 13.268 12.2678C13.7369 11.799 14.0002 11.163 14.0002 10.5C14.0002 10.0055 13.8535 9.52221 13.5788 9.11108C13.3041 8.69996 12.9137 8.37953 12.4569 8.19031C12.0001 8.00109 11.4975 7.95163 11.0126 8.0481C10.5276 8.14456 10.082 8.38255 9.7324 8.73218C9.38277 9.08181 9.14478 9.52738 9.04832 10.0123C8.95186 10.4973 9.00131 10.9998 9.19053 11.4567C9.37975 11.9135 9.70018 12.3039 10.1113 12.5786Z" fill="#424242"/>
</svg>
