<svg width="16" height="16" viewBox="0 0 16 16" fill="none" xmlns="http://www.w3.org/2000/svg">
<path fill-rule="evenodd" clip-rule="evenodd" d="M8.00024 1.00305C6.14373 1.00305 4.36323 1.74059 3.05048 3.05334C1.73772 4.3661 1.00024 6.14654 1.00024 8.00305V8.43311C1.09024 9.94311 2.91024 10.2231 4.00024 9.13306C4.35673 8.81625 4.82078 8.64759 5.29749 8.66162C5.77419 8.67565 6.22753 8.87127 6.56476 9.2085C6.90199 9.54572 7.0976 9.99912 7.11163 10.4758C7.12567 10.9525 6.95707 11.4166 6.64026 11.7731C5.54026 12.9331 5.85025 14.843 7.44025 14.973H8.04022C9.89674 14.973 11.6772 14.2356 12.99 12.9229C14.3027 11.6101 15.0402 9.82954 15.0402 7.97302C15.0402 6.11651 14.3027 4.33607 12.99 3.02332C11.6772 1.71056 9.89674 0.973022 8.04022 0.973022L8.00024 1.00305ZM8.00024 14.0031H7.48022C7.34775 13.9989 7.22072 13.9495 7.12024 13.863C7.04076 13.7807 6.98839 13.6761 6.97021 13.5631C6.93834 13.3682 6.95353 13.1684 7.0144 12.9806C7.07528 12.7927 7.18013 12.6222 7.32025 12.483C7.84072 11.9474 8.1319 11.2299 8.1319 10.483C8.1319 9.73615 7.84072 9.0187 7.32025 8.48303C7.05373 8.21635 6.73723 8.00481 6.38892 7.86047C6.0406 7.71614 5.66726 7.64185 5.29022 7.64185C4.91318 7.64185 4.53984 7.71614 4.19153 7.86047C3.84321 8.00481 3.52678 8.21635 3.26025 8.48303C3.15093 8.61081 3.01113 8.709 2.85382 8.76843C2.69651 8.82786 2.52673 8.84657 2.36023 8.823C2.27617 8.80694 2.19927 8.76498 2.14026 8.703C2.07155 8.6224 2.0358 8.5189 2.04022 8.41309V8.04309C2.04022 6.8564 2.39216 5.69629 3.05145 4.70959C3.71074 3.7229 4.64778 2.95388 5.74414 2.49976C6.8405 2.04563 8.04693 1.92681 9.21082 2.15833C10.3747 2.38984 11.4438 2.9613 12.2829 3.80042C13.122 4.63953 13.6934 5.70867 13.9249 6.87256C14.1564 8.03644 14.0376 9.24275 13.5835 10.3391C13.1294 11.4355 12.3604 12.3726 11.3737 13.0319C10.387 13.6911 9.22691 14.0431 8.04022 14.0431L8.00024 14.0031ZM9.00024 3.99683C9.00024 4.54911 8.55253 4.99683 8.00024 4.99683C7.44796 4.99683 7.00024 4.54911 7.00024 3.99683C7.00024 3.44454 7.44796 2.99683 8.00024 2.99683C8.55253 2.99683 9.00024 3.44454 9.00024 3.99683ZM12.0002 11.0037C12.0002 11.5559 11.5525 12.0037 11.0002 12.0037C10.448 12.0037 10.0002 11.5559 10.0002 11.0037C10.0002 10.4514 10.448 10.0037 11.0002 10.0037C11.5525 10.0037 12.0002 10.4514 12.0002 11.0037ZM5.00024 6.00415C5.55253 6.00415 6.00024 5.55644 6.00024 5.00415C6.00024 4.45187 5.55253 4.00415 5.00024 4.00415C4.44796 4.00415 4.00024 4.45187 4.00024 5.00415C4.00024 5.55644 4.44796 6.00415 5.00024 6.00415ZM12.0002 5.00415C12.0002 5.55644 11.5525 6.00415 11.0002 6.00415C10.448 6.00415 10.0002 5.55644 10.0002 5.00415C10.0002 4.45187 10.448 4.00415 11.0002 4.00415C11.5525 4.00415 12.0002 4.45187 12.0002 5.00415ZM13.0003 7.99939C13.0003 8.55167 12.5526 8.99939 12.0003 8.99939C11.448 8.99939 11.0003 8.55167 11.0003 7.99939C11.0003 7.4471 11.448 6.99939 12.0003 6.99939C12.5526 6.99939 13.0003 7.4471 13.0003 7.99939Z" fill="#424242"/>
</svg>
