<svg width="16" height="16" viewBox="0 0 16 16" fill="none" xmlns="http://www.w3.org/2000/svg">
<path d="M11.4967 4C10.6552 3.9989 9.8416 4.30189 9.20581 4.85315C8.57002 5.40442 8.15489 6.16684 8.03674 7H4.93665C4.81495 6.52867 4.52557 6.11794 4.12268 5.84473C3.71979 5.57152 3.23108 5.45466 2.74817 5.51599C2.26526 5.57733 1.82131 5.81261 1.49951 6.17786C1.17772 6.54311 1.00024 7.01322 1.00024 7.5C1.00024 7.98679 1.17772 8.45689 1.49951 8.82215C1.82131 9.1874 2.26526 9.42267 2.74817 9.48401C3.23108 9.54535 3.71979 9.42848 4.12268 9.15528C4.52557 8.88207 4.81495 8.47133 4.93665 8H8.03674C8.13261 8.66418 8.41741 9.28683 8.85718 9.7937C9.29695 10.3006 9.87308 10.6703 10.5171 10.8589C11.1611 11.0475 11.8458 11.047 12.4895 10.8574C13.1332 10.6679 13.7089 10.2973 14.1479 9.7898C14.587 9.28227 14.8708 8.65919 14.9657 7.99488C15.0606 7.33056 14.9624 6.65298 14.683 6.04285C14.4036 5.43272 13.9547 4.91578 13.3898 4.55359C12.8248 4.19141 12.1678 3.99922 11.4967 4V4ZM11.4967 10C11.0023 10 10.5189 9.85332 10.1078 9.57862C9.69667 9.30391 9.37623 8.91348 9.18701 8.45667C8.99779 7.99985 8.94834 7.49728 9.0448 7.01233C9.14126 6.52738 9.37925 6.08181 9.72888 5.73218C10.0785 5.38255 10.5241 5.14456 11.009 5.0481C11.494 4.95164 11.9966 5.00109 12.4534 5.19031C12.9102 5.37953 13.3006 5.69996 13.5753 6.11109C13.85 6.52221 13.9967 7.00555 13.9967 7.5C13.9967 8.16304 13.7334 8.79898 13.2645 9.26783C12.7957 9.73667 12.1597 10 11.4967 10V10Z" fill="#007ACC"/>
</svg>
