<?xml version="1.0" encoding="UTF-8" standalone="no"?>
<svg
   xmlns:dc="http://purl.org/dc/elements/1.1/"
   xmlns:cc="http://creativecommons.org/ns#"
   xmlns:rdf="http://www.w3.org/1999/02/22-rdf-syntax-ns#"
   xmlns:svg="http://www.w3.org/2000/svg"
   xmlns="http://www.w3.org/2000/svg"
   xmlns:xlink="http://www.w3.org/1999/xlink"
   xmlns:sodipodi="http://sodipodi.sourceforge.net/DTD/sodipodi-0.dtd"
   xmlns:inkscape="http://www.inkscape.org/namespaces/inkscape"
   xml:space="preserve"
   id="svg4768"
   viewBox="0.171 0.201 512 512"
   height="48"
   width="48"
   version="1.0"
   inkscape:version="0.48.4 r9939"
   sodipodi:docname="logo.svg"
   inkscape:export-filename="/home/me/src/emacs/ement.el/images/logo64.png"
   inkscape:export-xdpi="120"
   inkscape:export-ydpi="120"><sodipodi:namedview
     pagecolor="#ffffff"
     bordercolor="#666666"
     borderopacity="1"
     objecttolerance="10"
     gridtolerance="10"
     guidetolerance="10"
     inkscape:pageopacity="0"
     inkscape:pageshadow="2"
     inkscape:window-width="1920"
     inkscape:window-height="1173"
     id="namedview72"
     showgrid="false"
     inkscape:zoom="6.9532167"
     inkscape:cx="63.22113"
     inkscape:cy="9.8428958"
     inkscape:window-x="1920"
     inkscape:window-y="6"
     inkscape:window-maximized="1"
     inkscape:current-layer="svg4768" /><metadata
     id="metadata70"><rdf:RDF><cc:Work
         rdf:about=""><dc:format>image/svg+xml</dc:format><dc:type
           rdf:resource="http://purl.org/dc/dcmitype/StillImage" /><dc:title></dc:title></cc:Work></rdf:RDF></metadata><!-- Gnu Emacs Icon
   Copyright (C) 2008-2017 Free Software Foundation, Inc.

   Author: Nicolas Petton <nicolas@petton.fr>

   This file is part of GNU Emacs.

   GNU Emacs is free software: you can redistribute it and/or modify
   it under the terms of the GNU General Public License as published by
   the Free Software Foundation; either version 3 of the License, or
   (at your option) any later version.

   GNU Emacs is distributed in the hope that it will be useful,
   but WITHOUT ANY WARRANTY; without even the implied warranty of
   MERCHANTABILITY or FITNESS FOR A PARTICULAR PURPOSE.  See the
   GNU General Public License for more details.

   You should have received a copy of the GNU General Public License
   along with GNU Emacs.  If not, see <http://www.gnu.org/licenses/>.

--><!-- Created with Inkscape (http://www.inkscape.org/) --><defs
     id="defs4770"><linearGradient
       id="linearGradient3961"><stop
         id="stop3963"
         offset="0"
         style="stop-color:#ffffff;stop-opacity:1;" /><stop
         id="stop3965"
         offset="1"
         style="stop-color:#0dbd8b;stop-opacity:1;" /></linearGradient><linearGradient
       id="linearGradient3874"><stop
         offset="0"
         style="stop-color:#000000;stop-opacity:1;"
         id="stop3876" /><stop
         id="stop3882"
         style="stop-color:#000000;stop-opacity:1;"
         offset="1" /></linearGradient><linearGradient
       id="linearGradient3866"><stop
         style="stop-color:#00ff18;stop-opacity:1;"
         offset="0"
         id="stop3868" /><stop
         style="stop-color:#000000;stop-opacity:1;"
         offset="1"
         id="stop3870" /></linearGradient><linearGradient
       id="linearGradient3817"><stop
         id="stop3819"
         style="stop-color:#00ff0a;stop-opacity:1;"
         offset="0" /><stop
         id="stop3823"
         style="stop-color:#000000;stop-opacity:0.99215686;"
         offset="1" /></linearGradient><linearGradient
       id="linearGradient4292"><stop
         id="stop4294"
         offset="0"
         style="stop-color:#411f5d;stop-opacity:1" /><stop
         id="stop4296"
         offset="1"
         style="stop-color:#5b2a85;stop-opacity:1" /></linearGradient><linearGradient
       id="linearGradient4284"><stop
         offset="0"
         style="stop-color:#8381c5;stop-opacity:1"
         id="stop4286" /><stop
         id="stop4290"
         style="stop-color:#7e55b3;stop-opacity:0.99607843"
         offset="0.56639391" /><stop
         offset="1"
         style="stop-color:#a52ecb;stop-opacity:0.99215686"
         id="stop4288" /></linearGradient><linearGradient
       id="linearGradient4898"><stop
         id="stop4278"
         style="stop-color:#bab8db;stop-opacity:1"
         offset="0" /><stop
         id="stop4280"
         style="stop-color:#5955a9;stop-opacity:0.99159664"
         offset="1" /></linearGradient><linearGradient
       id="linearGradient3294"><stop
         offset="0"
         style="stop-color:#6376e6;stop-opacity:1"
         id="stop3296" /><stop
         offset="0.50094414"
         style="stop-color:#222989;stop-opacity:1"
         id="stop3302" /><stop
         offset="1"
         style="stop-color:#00003d;stop-opacity:1"
         id="stop3298" /></linearGradient><linearGradient
       id="linearGradient3284"><stop
         offset="0"
         style="stop-color:#000000;stop-opacity:1"
         id="stop3286" /><stop
         offset="0.84845906"
         style="stop-color:#000000;stop-opacity:0.49803922"
         id="stop3292" /><stop
         offset="1"
         style="stop-color:#000000;stop-opacity:0"
         id="stop3288" /></linearGradient><linearGradient
       id="linearGradient3274"><stop
         offset="0"
         style="stop-color:#000000;stop-opacity:1"
         id="stop3276" /><stop
         offset="1"
         style="stop-color:#000000;stop-opacity:0"
         id="stop3278" /></linearGradient><linearGradient
       id="linearGradient3262"><stop
         offset="0"
         style="stop-color:#000000;stop-opacity:1"
         id="stop3264" /><stop
         offset="1"
         style="stop-color:#000000;stop-opacity:0"
         id="stop3266" /></linearGradient><linearGradient
       id="linearGradient3242"><stop
         offset="0"
         style="stop-color:#282828;stop-opacity:1"
         id="stop3244" /><stop
         offset="0.39253417"
         style="stop-color:#808080;stop-opacity:1"
         id="stop3252" /><stop
         offset="1"
         style="stop-color:#d9d9d9;stop-opacity:1"
         id="stop3246" /></linearGradient><linearGradient
       id="linearGradient3202"><stop
         offset="0"
         style="stop-color:#2b2b2b;stop-opacity:1"
         id="stop3204" /><stop
         offset="0.5"
         style="stop-color:#828383;stop-opacity:1"
         id="stop3250" /><stop
         offset="1"
         style="stop-color:#dadbdb;stop-opacity:1"
         id="stop3206" /></linearGradient><linearGradient
       id="linearGradient4966"><stop
         offset="0"
         style="stop-color:#b6b3d8;stop-opacity:1"
         id="stop4968" /><stop
         offset="1"
         style="stop-color:#b6b3d8;stop-opacity:0"
         id="stop4970" /></linearGradient><linearGradient
       id="linearGradient4938"><stop
         offset="0"
         style="stop-color:#000000;stop-opacity:1"
         id="stop4940" /><stop
         offset="1"
         style="stop-color:#000000;stop-opacity:0"
         id="stop4942" /></linearGradient><linearGradient
       id="linearGradient4282"><stop
         offset="0"
         style="stop-color:#bab8db;stop-opacity:1"
         id="stop4900" /><stop
         offset="1"
         style="stop-color:#5955a9;stop-opacity:0.99159664"
         id="stop4902" /></linearGradient><linearGradient
       id="linearGradient4876"><stop
         offset="0"
         style="stop-color:#d3d2e8;stop-opacity:1"
         id="stop4878" /><stop
         offset="1"
         style="stop-color:#5955a9;stop-opacity:0.99159664"
         id="stop4880" /></linearGradient><radialGradient
       gradientTransform="matrix(0.6817439,0,0,0.5905355,-3.8523706,-28.935273)"
       gradientUnits="userSpaceOnUse"
       xlink:href="#linearGradient4898"
       id="radialGradient4892"
       fy="-108.96888"
       fx="20.951529"
       r="266.76535"
       cy="-108.96888"
       cx="20.951529" /><radialGradient
       gradientTransform="matrix(1,0,0,0.1854103,0,383.88493)"
       gradientUnits="userSpaceOnUse"
       xlink:href="#linearGradient4938"
       id="radialGradient4944"
       fy="471.26172"
       fx="233.8876"
       r="170.49393"
       cy="471.26172"
       cx="233.8876" /><radialGradient
       gradientTransform="matrix(1,0,0,0.9121621,0,32.654948)"
       gradientUnits="userSpaceOnUse"
       xlink:href="#linearGradient4966"
       id="radialGradient4972"
       fy="371.76376"
       fx="299.70135"
       r="76.696358"
       cy="371.76376"
       cx="299.70135" /><radialGradient
       gradientTransform="matrix(0.414705,0.3300575,-0.5059004,0.6356454,346.95314,49.479585)"
       gradientUnits="userSpaceOnUse"
       xlink:href="#linearGradient3202"
       id="radialGradient3210"
       fy="390.45248"
       fx="289.44067"
       r="17.67668"
       cy="390.45248"
       cx="289.44067" /><radialGradient
       gradientTransform="matrix(0.414705,0.3300575,-0.5059004,0.6356454,448.41009,-65.398074)"
       gradientUnits="userSpaceOnUse"
       xlink:href="#linearGradient3202"
       id="radialGradient3238"
       fy="382.14804"
       fx="283.50717"
       r="17.67668"
       cy="382.14804"
       cx="283.50717" /><radialGradient
       gradientTransform="matrix(-6.5565014e-2,-5.9721765e-2,1.6871024,-1.8521705,171.90774,540.51473)"
       gradientUnits="userSpaceOnUse"
       xlink:href="#linearGradient3242"
       id="radialGradient3248"
       fy="181.18982"
       fx="418.45551"
       r="63.068935"
       cy="181.18982"
       cx="418.45551" /><radialGradient
       gradientTransform="matrix(0.4055116,-3.3440123e-2,0.1034174,4.3988695,177.23251,-1191.6649)"
       gradientUnits="userSpaceOnUse"
       xlink:href="#linearGradient3262"
       id="radialGradient3268"
       fy="357.33591"
       fx="354.51709"
       r="33.712105"
       cy="357.33591"
       cx="354.51709" /><radialGradient
       gradientTransform="matrix(-0.1339874,-0.1146812,0.3079048,-0.3597394,444.23592,395.03849)"
       gradientUnits="userSpaceOnUse"
       xlink:href="#linearGradient3274"
       id="radialGradient3280"
       fy="223.55537"
       fx="510.58469"
       r="132.28336"
       cy="223.55537"
       cx="510.58469" /><radialGradient
       gradientTransform="matrix(-1.2497569,1.3798305,-9.6289463e-2,-7.2974479e-2,674.3826,-70.590682)"
       gradientUnits="userSpaceOnUse"
       xlink:href="#linearGradient3284"
       id="radialGradient3290"
       fy="-158.17821"
       fx="284.4671"
       r="110.2972"
       cy="-158.17821"
       cx="284.4671" /><radialGradient
       gradientTransform="matrix(-0.1008165,-8.0872321e-2,1.0745309,-1.3395252,13.843287,784.79288)"
       gradientUnits="userSpaceOnUse"
       xlink:href="#linearGradient3294"
       id="radialGradient3300"
       fy="356.62274"
       fx="425.51019"
       r="143.34167"
       cy="356.62274"
       cx="425.51019" /><filter
       height="1.088351"
       y="-0.044175496"
       width="1.0892536"
       x="-0.044626798"
       id="filter4350"
       style="color-interpolation-filters:sRGB"><feGaussianBlur
         id="feGaussianBlur4352"
         stdDeviation="8.7848425" /></filter><linearGradient
       y2="300.73987"
       x2="236.61363"
       y1="-161.8512"
       x1="-122.20192"
       spreadMethod="pad"
       gradientTransform="matrix(0.87385837,0,0,0.82818057,246.00762,250.28138)"
       gradientUnits="userSpaceOnUse"
       id="linearGradient4245"
       xlink:href="#linearGradient3817" /><linearGradient
       y2="66.018341"
       x2="173.94518"
       y1="396.6066"
       x1="447.80933"
       gradientTransform="matrix(0.98684959,0,0,0.98684959,3.0344187,2.5250397)"
       gradientUnits="userSpaceOnUse"
       id="linearGradient4247"
       xlink:href="#linearGradient4292" /><radialGradient
       inkscape:collect="always"
       xlink:href="#linearGradient3961"
       id="radialGradient3959"
       cx="1136.9111"
       cy="38.175797"
       fx="1136.9111"
       fy="38.175797"
       r="233.11514"
       gradientTransform="matrix(1,0,0,1.010216,-880.74005,217.63519)"
       gradientUnits="userSpaceOnUse" /><radialGradient
       inkscape:collect="always"
       xlink:href="#linearGradient3961"
       id="radialGradient3973"
       cx="255.12297"
       cy="256.89456"
       fx="255.12297"
       fy="256.89456"
       r="239.78181"
       gradientTransform="matrix(1,0,0,1.009932,0,-2.5514676)"
       gradientUnits="userSpaceOnUse" /></defs><rect
     style="fill:none;display:none"
     id="rect4772"
     y="0.20100001"
     x="0.171"
     height="512"
     width="512" /><g
     style="display:none"
     id="g4788"><g
       style="display:inline"
       id="g4790" /></g><g
     style="display:none"
     id="g4806"><g
       style="display:inline"
       id="g4808"><path
         style="fill:#050505;display:none"
         id="path4810"
         d="M 349.098,256.651 C 348.833,256.397 386.735,284.256 388.519,281.663 C 394.881,272.411 470.565,188.526 473.303,165.427 C 473.545,163.424 472.787,161.331 472.787,161.331 C 472.787,161.331 471.597,161.187 466.462,157.017 C 463.77,154.825 460.979,152.436 460.979,152.436 C 444.925,153.434 403.094,193.995 349.917,256.004" /></g></g><path
     d="m 488.23812,256.89456 c 0,130.06121 -104.3692,235.49665 -233.1151,235.49665 -128.7459,0 -233.115201,-105.43544 -233.115201,-235.49665 0,-130.06123 104.369301,-235.49666 233.115201,-235.49666 128.7459,0 233.1151,105.43543 233.1151,235.49666 z"
     id="path4235"
     style="fill:url(#radialGradient3973);fill-opacity:1.0;stroke:#000000;stroke-width:13.33333301999999954;stroke-miterlimit:4;stroke-opacity:1;stroke-dasharray:none"
     inkscape:connector-curvature="0" /><path
     style="fill:#ffffff;fill-opacity:1;fill-rule:evenodd;stroke:#0dbd8b;stroke-width:0.64471179;stroke-opacity:1"
     inkscape:connector-curvature="0"
     clip-rule="evenodd"
     d="m -862.34934,-104.26336 c 0,-16.20664 13.138,-29.34464 29.34471,-29.34464 108.04422,0 195.63103,87.586807 195.63103,195.631095 0,16.206636 -13.138,29.344642 -29.34464,29.344642 -16.20664,0 -29.34464,-13.138006 -29.34464,-29.344642 0,-75.631014 -61.3108,-136.941754 -136.94175,-136.941754 -16.20671,0 -29.34471,-13.138067 -29.34471,-29.344701 z"
     id="path4" /><path
     style="fill:#ffffff;fill-opacity:1;fill-rule:evenodd;stroke:#0dbd8b;stroke-width:0.64471179;stroke-opacity:1"
     inkscape:connector-curvature="0"
     clip-rule="evenodd"
     d="m -725.40758,326.12504 c 0,16.20664 -13.13801,29.34464 -29.34464,29.34464 -108.04429,0 -195.63112,-87.58681 -195.63112,-195.63103 0,-16.20664 13.138,-29.34471 29.3447,-29.34471 16.2066,0 29.3447,13.13807 29.3447,29.34471 0,75.63095 61.3107,136.94175 136.94172,136.94175 16.20663,0 29.34464,13.138 29.34464,29.34464 z"
     id="path6" /><path
     style="fill:#ffffff;fill-opacity:1;fill-rule:evenodd;stroke:#0dbd8b;stroke-width:0.64471179;stroke-opacity:1"
     inkscape:connector-curvature="0"
     clip-rule="evenodd"
     d="m -1009.0726,179.40172 c -16.2067,0 -29.3447,-13.13801 -29.3447,-29.34464 0,-108.044293 87.58676,-195.631101 195.6311,-195.631101 16.20663,0 29.34464,13.138002 29.34464,29.344639 0,16.20663681 -13.13801,29.344702 -29.34464,29.344702 -75.63104,0 -136.94174,61.310741 -136.94174,136.94176 0,16.20663 -13.1381,29.34464 -29.34466,29.34464 z"
     id="path8" /><path
     style="fill:#ffffff;fill-opacity:1;fill-rule:evenodd;stroke:#0dbd8b;stroke-width:0.64471179;stroke-opacity:1"
     inkscape:connector-curvature="0"
     clip-rule="evenodd"
     d="m -578.68426,42.459959 c 16.20664,0 29.34464,13.138002 29.34464,29.344639 0,108.044292 -87.58681,195.631102 -195.63103,195.631102 -16.20664,0 -29.34471,-13.138 -29.34471,-29.34464 0,-16.20664 13.13807,-29.34464 29.34471,-29.34464 75.63095,0 136.94175,-61.3108 136.94175,-136.941822 0,-16.206637 13.138,-29.344639 29.34464,-29.344639 z"
     id="path10" /><path
     style="fill:#ffffff;fill-opacity:1;fill-rule:evenodd;stroke:#0dbd8b;stroke-width:0.23561016;stroke-opacity:1"
     inkscape:connector-curvature="0"
     clip-rule="evenodd"
     d="m -258.96103,188.38006 c -5.92272,0 -10.72401,-4.80129 -10.72401,-10.72404 0,-39.48479 32.00863,-71.49343 71.49346,-71.49343 5.92272,0 10.72401,4.80129 10.72401,10.72401 0,5.92273 -4.80129,10.72401 -10.72401,10.72401 -27.63938,0 -50.04542,22.40606 -50.04542,50.04541 0,5.92275 -4.80131,10.72404 -10.72403,10.72404 z"
     id="path4-3" /><path
     style="fill:#ffffff;fill-opacity:1;fill-rule:evenodd;stroke:#0dbd8b;stroke-width:0.23561016;stroke-opacity:1"
     inkscape:connector-curvature="0"
     clip-rule="evenodd"
     d="m -187.33996,241.78363 c 0,5.92274 -4.80129,10.72402 -10.72401,10.72402 -39.48482,0 -71.49346,-32.00861 -71.49346,-71.49346 0,-5.92272 4.80129,-10.72401 10.72401,-10.72401 5.92273,0 10.72403,4.80129 10.72403,10.72401 0,27.63939 22.40604,50.04541 50.04542,50.04541 5.92272,0 10.72401,4.80133 10.72401,10.72402 z"
     id="path8-7" /><path
     style="fill:#ffffff;fill-opacity:1;fill-rule:evenodd;stroke:#0dbd8b;stroke-width:0.23561016;stroke-opacity:1"
     inkscape:connector-curvature="0"
     clip-rule="evenodd"
     d="m -258.74453,313.27152 c -5.92272,0 -10.72401,-4.80129 -10.72401,-10.72401 0,-39.48483 32.00863,-71.49347 71.49344,-71.49347 5.92272,0 10.72403,4.80129 10.72403,10.72401 0,5.92273 -4.80131,10.72402 -10.72403,10.72402 -27.63937,0 -50.04542,22.40605 -50.04542,50.04544 0,5.92272 -4.80129,10.72401 -10.72401,10.72401 z"
     id="path10-5" /><path
     style="fill:#ffffff;fill-opacity:1;fill-rule:evenodd;stroke:#0dbd8b;stroke-width:0.23561016;stroke-opacity:1"
     inkscape:connector-curvature="0"
     clip-rule="evenodd"
     d="m -187.12346,367.23573 c 0,5.92272 -4.80128,10.724 -10.72401,10.724 -39.48482,0 -71.49346,-32.00863 -71.49346,-71.49343 0,-5.92272 4.80129,-10.72403 10.72403,-10.72403 5.92271,0 10.72404,4.80131 10.72404,10.72403 0,27.63936 22.40601,50.04542 50.04539,50.04542 5.92273,0 10.72401,4.80128 10.72401,10.72401 z"
     id="path6-6" /><path
     style="fill:#ffffff;fill-opacity:1;fill-rule:evenodd;stroke:#0dbd8b;stroke-width:0.29136932;stroke-opacity:1"
     inkscape:connector-curvature="0"
     clip-rule="evenodd"
     d="m 629.26349,134.49819 c -5.17912,5.17913 -13.57608,5.17911 -18.75524,-3e-5 -34.52746,-34.527469 -34.52746,-90.507338 4e-5,-125.0348349 5.17912,-5.1791201 13.57609,-5.1791215 18.75521,2.1e-6 5.17912,5.1791198 5.1791,13.5760858 -10e-6,18.7551968 -24.16926,24.16926 -24.16922,63.355176 0,87.524396 5.17914,5.17914 5.17912,13.57614 0,18.75527 z"
     id="path4-3-3" /><path
     style="fill:#ffffff;fill-opacity:1;fill-rule:evenodd;stroke:#0dbd8b;stroke-width:0.41281462;stroke-opacity:1"
     inkscape:connector-curvature="0"
     clip-rule="evenodd"
     d="m 740.87146,587.17776 c -10.37726,0 -18.78964,-8.41245 -18.78964,-18.78967 0,-69.18171 56.08261,-125.26432 125.26429,-125.26432 10.37724,0 18.78967,8.41239 18.78967,18.78963 0,10.37726 -8.41243,18.78964 -18.78967,18.78964 -48.42717,0 -87.68502,39.25785 -87.68502,87.68505 0,10.37722 -8.41238,18.78967 -18.78963,18.78967 z"
     id="path10-5-6" /><path
     style="fill:#ffffff;fill-opacity:1;fill-rule:evenodd;stroke:#0dbd8b;stroke-width:0.29136932;stroke-opacity:1"
     inkscape:connector-curvature="0"
     clip-rule="evenodd"
     d="m 630.7519,243.88245 c -5.17914,5.17911 -13.5761,5.17911 -18.75523,0 -34.52748,-34.52751 -34.5275,-90.50737 0,-125.03487 5.17912,-5.1791 13.57607,-5.17908 18.75518,3e-5 5.17917,5.17907 5.17918,13.57606 5e-5,18.75519 -24.16926,24.16926 -24.16924,63.35515 2e-5,87.5244 5.17912,5.17912 5.17907,13.57615 -2e-5,18.75518 z"
     id="path8-7-5" /><g
     id="g3921"
     transform="matrix(1.2623093,0,0,1.2623093,-22.620675,-167.67864)"><path
       id="path4-9"
       d="m -567.88395,525.90207 c 0,-8.09524 6.56246,-14.6577 14.65773,-14.6577 53.96826,0 97.71801,43.74975 97.71801,97.71804 0,8.09524 -6.56246,14.65769 -14.65769,14.65769 -8.09525,0 -14.6577,-6.56245 -14.6577,-14.65769 0,-37.7778 -30.62484,-68.40262 -68.40262,-68.40262 -8.09527,0 -14.65773,-6.56248 -14.65773,-14.65772 z"
       clip-rule="evenodd"
       inkscape:connector-curvature="0"
       style="fill:#ffffff;fill-opacity:1;fill-rule:evenodd;stroke:#0dbd8b;stroke-width:0.32203454;stroke-opacity:1" /><path
       id="path6-1"
       d="m -499.48133,740.88175 c 0,8.09524 -6.56245,14.65768 -14.65769,14.65768 -53.96829,0 -97.71805,-43.74974 -97.71805,-97.718 0,-8.09524 6.56246,-14.65772 14.65772,-14.65772 8.09523,0 14.65773,6.56248 14.65773,14.65772 0,37.77778 30.62479,68.40262 68.4026,68.40262 8.09524,0 14.65769,6.56245 14.65769,14.6577 z"
       clip-rule="evenodd"
       inkscape:connector-curvature="0"
       style="fill:#ffffff;fill-opacity:1;fill-rule:evenodd;stroke:#0dbd8b;stroke-width:0.32203454;stroke-opacity:1" /><path
       id="path8-2"
       d="m -641.17244,667.59321 c -8.09527,0 -14.65773,-6.56245 -14.65773,-14.65769 0,-53.96829 43.74973,-97.71804 97.71804,-97.71804 8.09524,0 14.6577,6.56246 14.6577,14.6577 0,8.09524 -6.56246,14.65772 -14.6577,14.65772 -37.77782,0 -68.40261,30.62481 -68.40261,68.40262 0,8.09524 -6.5625,14.65769 -14.6577,14.65769 z"
       clip-rule="evenodd"
       inkscape:connector-curvature="0"
       style="fill:#ffffff;fill-opacity:1;fill-rule:evenodd;stroke:#0dbd8b;stroke-width:0.32203454;stroke-opacity:1" /><path
       id="path10-7"
       d="m -426.19279,599.19059 c 8.09524,0 14.65769,6.56246 14.65769,14.65769 0,53.9683 -43.74975,97.71805 -97.71801,97.71805 -8.09524,0 -14.65772,-6.56246 -14.65772,-14.65769 0,-8.09525 6.56248,-14.6577 14.65772,-14.6577 37.77778,0 68.40262,-30.62484 68.40262,-68.40266 0,-8.09523 6.56245,-14.65769 14.6577,-14.65769 z"
       clip-rule="evenodd"
       inkscape:connector-curvature="0"
       style="fill:#ffffff;fill-opacity:1;fill-rule:evenodd;stroke:#0dbd8b;stroke-width:0.32203454;stroke-opacity:1" /></g><path
     d="m 168.87017,369.7941 c 0,0 13.23506,0.93627 30.26137,-0.56431 6.89523,-0.60768 33.07453,-3.17912 52.64715,-7.47152 0,0 23.86373,-5.10715 36.63057,-9.81197 13.35843,-4.92285 20.62761,-9.10098 23.89954,-15.02127 -0.14269,-1.21302 1.00739,-5.51461 -5.15294,-8.09846 -15.74964,-6.60595 -34.01548,-5.41108 -70.15906,-6.1774 -40.0818,-1.37718 -53.41542,-8.08627 -60.51817,-13.48977 -6.81108,-5.48163 -3.38613,-20.64701 25.79772,-34.00541 14.70074,-7.11354 72.32932,-20.24098 72.32932,-20.24098 -19.40827,-9.59329 -55.59858,-26.458 -63.03787,-30.09979 -6.52468,-3.19401 -16.96616,-8.00329 -19.2295,-13.82188 -2.56614,-5.58603 6.06036,-10.39793 10.87905,-11.77591 15.51905,-4.47641 37.42722,-7.25864 57.3662,-7.571 10.0224,-0.15701 11.64921,-0.80185 11.64921,-0.80185 13.82901,-2.29394 22.93273,-11.75538 19.13973,-26.73949 -3.40511,-15.29487 -21.36391,-24.28197 -38.43005,-21.17074 -16.07116,2.92988 -54.80683,14.18154 -54.80683,14.18154 47.88016,-0.4144 55.89402,0.38474 59.47311,5.38881 2.11368,2.95526 -0.96045,7.00739 -13.7299,9.09291 -13.90189,2.27049 -42.80009,5.00476 -42.80009,5.00476 -27.72258,1.6464 -47.25033,1.75659 -53.10719,14.15679 -3.82632,8.10119 4.08038,15.26323 7.5459,19.74633 14.64462,16.28629 35.79785,25.06993 49.41383,31.53826 5.12311,2.43375 20.15489,7.02978 20.15489,7.02978 -44.17265,-2.42953 -76.03716,11.13432 -94.72864,26.75121 -21.14069,19.55411 -11.78868,42.86201 31.52274,57.21332 25.58149,8.47645 38.26825,12.46292 76.42687,9.02676 22.47583,-1.21144 26.01893,-0.49052 26.24301,1.35373 0.31548,2.59652 -24.96418,9.04641 -31.86578,11.03716 -17.55777,5.06447 -63.5838,15.29078 -63.81419,15.34039 z"
     id="path4237"
     style="fill:#ffffff;fill-opacity:1;fill-rule:evenodd;stroke:#0dbd8b;stroke-opacity:1;stroke-width:2.13333333000000014;stroke-miterlimit:4;stroke-dasharray:none"
     inkscape:connector-curvature="0" /><path
     style="fill:#ffffff;fill-opacity:1;fill-rule:evenodd;stroke:#0dbd8b;stroke-width:0.29136932;stroke-opacity:1"
     inkscape:connector-curvature="0"
     clip-rule="evenodd"
     d="m 741.14237,231.14899 c 5.17911,5.17911 5.17911,13.5761 0,18.75521 -34.5275,34.52749 -90.50738,34.5275 -125.03484,5e-5 -5.17911,-5.17912 -5.17915,-13.57613 -10e-6,-18.75527 5.17911,-5.17911 13.57615,-5.1791 18.75525,1e-5 24.16922,24.16921 63.35516,24.16927 87.5244,2e-5 5.17913,-5.17912 13.57606,-5.17915 18.7552,-2e-5 z"
     id="path6-6-2" /><text
     xml:space="preserve"
     style="font-size:237.56724547999996844px;font-style:normal;font-variant:normal;font-weight:normal;font-stretch:normal;text-align:start;line-height:125%;letter-spacing:0px;word-spacing:0px;writing-mode:lr-tb;text-anchor:start;fill:#ffffff;fill-opacity:1;stroke:#0dbd8b;font-family:Hack;-inkscape-font-specification:Hack;stroke-opacity:1;stroke-width:2.13333333000000014;stroke-miterlimit:4;stroke-dasharray:none"
     x="295.67422"
     y="342.85031"
     id="text3927"
     sodipodi:linespacing="125%"
     transform="scale(0.97330289,1.0274294)"><tspan
       sodipodi:role="line"
       id="tspan3929"
       x="295.67422"
       y="342.85031"
       style="font-size:237.56724547999996844px;font-style:normal;font-variant:normal;font-weight:normal;font-stretch:normal;text-align:start;line-height:125%;writing-mode:lr-tb;text-anchor:start;font-family:Hack;-inkscape-font-specification:Hack;stroke:#0dbd8b;stroke-opacity:1;stroke-width:2.13333333000000014;stroke-miterlimit:4;stroke-dasharray:none">l</tspan></text>
<text
     xml:space="preserve"
     style="font-size:138.19949341000000231px;font-style:normal;font-variant:normal;font-weight:normal;font-stretch:normal;text-align:start;line-height:125%;letter-spacing:0px;word-spacing:0px;writing-mode:lr-tb;text-anchor:start;fill:#ffffff;fill-opacity:1;stroke:#0dbd8b;font-family:Hack;-inkscape-font-specification:Hack;stroke-opacity:1;stroke-width:2.13333333000000014;stroke-miterlimit:4;stroke-dasharray:none"
     x="76.662376"
     y="367.39389"
     id="text3931"
     sodipodi:linespacing="125%"><tspan
       sodipodi:role="line"
       id="tspan3933"
       x="76.662376"
       y="367.39389">.</tspan></text>
</svg>