<svg width="16" height="16" viewBox="0 0 16 16" fill="none" xmlns="http://www.w3.org/2000/svg">
<path d="M11.4965 4C10.655 3.9989 9.84136 4.30189 9.20557 4.85315C8.56977 5.40442 8.15465 6.16684 8.0365 7H4.9364C4.8147 6.52867 4.52533 6.11794 4.12244 5.84473C3.71955 5.57152 3.23083 5.45466 2.74792 5.51599C2.26502 5.57733 1.82106 5.81261 1.49927 6.17786C1.17747 6.54311 1 7.01322 1 7.5C1 7.98679 1.17747 8.45689 1.49927 8.82215C1.82106 9.1874 2.26502 9.42267 2.74792 9.48401C3.23083 9.54535 3.71955 9.42848 4.12244 9.15528C4.52533 8.88207 4.8147 8.47133 4.9364 8H8.0365C8.13236 8.66418 8.41717 9.28683 8.85693 9.7937C9.2967 10.3006 9.87284 10.6703 10.5168 10.8589C11.1609 11.0475 11.8455 11.047 12.4893 10.8574C13.133 10.6679 13.7087 10.2973 14.1477 9.7898C14.5867 9.28227 14.8706 8.65919 14.9655 7.99488C15.0603 7.33056 14.9621 6.65298 14.6827 6.04285C14.4034 5.43272 13.9545 4.91578 13.3895 4.55359C12.8246 4.19141 12.1675 3.99922 11.4965 4V4ZM11.4965 10C11.002 10 10.5187 9.85332 10.1075 9.57862C9.69642 9.30391 9.37599 8.91348 9.18677 8.45667C8.99755 7.99985 8.94809 7.49728 9.04456 7.01233C9.14102 6.52738 9.37901 6.08181 9.72864 5.73218C10.0783 5.38255 10.5238 5.14456 11.0088 5.0481C11.4937 4.95164 11.9963 5.00109 12.4531 5.19031C12.9099 5.37953 13.3004 5.69996 13.5751 6.11109C13.8498 6.52221 13.9965 7.00555 13.9965 7.5C13.9965 8.16304 13.7331 8.79898 13.2643 9.26783C12.7954 9.73667 12.1595 10 11.4965 10V10Z" fill="#75BEFF"/>
</svg>
