<svg width="16" height="16" viewBox="0 0 16 16" fill="none" xmlns="http://www.w3.org/2000/svg">
<path fill-rule="evenodd" clip-rule="evenodd" d="M2 5H4V4H1.5L1 4.5V12.5L1.5 13H4V12H2V5ZM14.5 4H12V5H14V12H12V13H14.5L15 12.5V4.5L14.5 4ZM11.76 6.56995L12 7V9.51001L11.7 9.95996L7.19995 11.96H6.73999L4.23999 10.46L4 10.03V7.53003L4.30005 7.06995L8.80005 5.06995H9.26001L11.76 6.56995ZM5 9.70996L6.5 10.61V9.28003L5 8.38V9.70996ZM5.57996 7.56006L7.03003 8.43005L10.42 6.93005L8.96997 6.06006L5.57996 7.56006ZM7.53003 10.73L11.03 9.17004V7.77002L7.53003 9.31995V10.73Z" fill="#75BEFF"/>
</svg>
