<svg width="24" height="24" viewBox="0 0 24 24" fill="none" xmlns="http://www.w3.org/2000/svg">
<g clip-path="url(#clip0)">
<path fill-rule="evenodd" clip-rule="evenodd" d="M11.1055 4.5613L7.67529 7.98827L6.54097 6.86834L8.61123 4.78848H3.81155C3.17507 4.78848 2.56466 5.04132 2.11461 5.49138C1.66455 5.94144 1.41171 6.55184 1.41171 7.18832C1.41171 7.8248 1.66455 8.43521 2.11461 8.88527C2.56466 9.33532 3.17507 9.58816 3.81155 9.58816H4.70109V11.1881H3.82115C2.79234 11.142 1.82094 10.7009 1.1092 9.95661C0.397467 9.21231 0.000244141 8.22216 0.000244141 7.19232C0.000244141 6.16249 0.397467 5.17234 1.1092 4.42803C1.82094 3.68373 2.79234 3.24263 3.82115 3.19659H8.62083L6.54097 1.13112L7.67529 0L11.1055 3.43177V4.5613ZM16.6203 24H7.02094L6.22099 23.2V10.4121L7.02094 9.61215H16.6203L17.4202 10.4121V23.2L16.6203 24ZM7.82089 22.4001H15.8204V11.212H7.82089V22.4001ZM13.4205 1.6015H23.0199L23.8198 2.40145V15.1878L23.0199 15.9877H19.0201V14.3878H22.2199V3.20139H14.2205V7.98828H12.6206V2.40145L13.4205 1.6015ZM14.2205 12.7879H9.42078V14.3878H14.2205V12.7879ZM9.42078 15.9877H14.2205V17.5876H9.42078V15.9877ZM14.2205 19.1875H9.42078V20.7874H14.2205V19.1875ZM15.8203 4.78848H20.62V6.38838H15.8203V4.78848ZM20.62 11.188H19.0201V12.7879H20.62V11.188ZM17.2827 8.01228V7.98828H20.62V9.58817H18.8585L17.2827 8.01228Z" fill="#424242"/>
</g>
<defs>
<clipPath id="clip0">
<rect width="24" height="24" fill="white" transform="translate(0.000244141)"/>
</clipPath>
</defs>
</svg>
