<svg width="16" height="16" viewBox="0 0 16 16" fill="none" xmlns="http://www.w3.org/2000/svg">
<path fill-rule="evenodd" clip-rule="evenodd" d="M2.00024 2L1.00024 3V12L2.00024 13H14.0002L15.0002 12V3L14.0002 2H2.00024ZM2.00024 12V3H14.0002V12H2.00024ZM5.35585 8.93017H6.00024V7.22067C6.00024 6.40689 5.68559 6 5.05628 6C4.92122 6 4.77108 6.02421 4.60585 6.07263C4.44205 6.12104 4.31274 6.17691 4.21792 6.24022V6.90503C4.45499 6.70205 4.70499 6.60056 4.96792 6.60056C5.22941 6.60056 5.36016 6.75698 5.36016 7.06983L4.76102 7.17318C4.25384 7.25885 4.00024 7.57914 4.00024 8.13408C4.00024 8.39665 4.06131 8.60708 4.18343 8.76536C4.307 8.92179 4.47582 9 4.6899 9C4.98013 9 5.19924 8.83985 5.34723 8.51955H5.35585V8.93017ZM5.36016 7.57542V7.76816C5.36016 7.9432 5.31993 8.08845 5.23947 8.20391C5.15901 8.3175 5.05484 8.3743 4.92697 8.3743C4.83501 8.3743 4.76174 8.34264 4.70714 8.27933C4.65398 8.21415 4.6274 8.13128 4.6274 8.03073C4.6274 7.80912 4.73803 7.6797 4.9593 7.64246L5.36016 7.57542ZM7.60118 8.62622H7.59367V8.93511H7.00024V5H7.59367V6.67683H7.60118C7.74766 6.36708 7.95611 6.2122 8.22653 6.2122C8.47442 6.2122 8.66535 6.32987 8.7993 6.56522C8.93326 6.80056 9.00024 7.12243 9.00024 7.53082C9.00024 7.97383 8.922 8.32944 8.7655 8.59766C8.60901 8.86589 8.39993 9 8.13827 9C7.90165 9 7.72262 8.87541 7.60118 8.62622ZM7.58428 7.50487V7.77742C7.58428 7.94873 7.61996 8.09063 7.69132 8.20311C7.76269 8.3156 7.85408 8.37184 7.9655 8.37184C8.10071 8.37184 8.20525 8.30002 8.27912 8.15639C8.35423 8.01103 8.39179 7.80597 8.39179 7.54121C8.39179 7.32144 8.35736 7.15012 8.28851 7.02726C8.2209 6.90266 8.12387 6.84036 7.99743 6.84036C7.87849 6.84036 7.77959 6.9018 7.70071 7.02466C7.62309 7.14752 7.58428 7.30759 7.58428 7.50487ZM11.2619 9C11.5837 9 11.8298 8.94227 12.0002 8.82682V8.11732C11.8202 8.25512 11.6362 8.32402 11.4483 8.32402C11.2364 8.32402 11.0699 8.25233 10.9489 8.10894C10.8278 7.96369 10.7673 7.76443 10.7673 7.51117C10.7673 7.25047 10.8302 7.04656 10.956 6.89944C11.0835 6.75047 11.2555 6.67598 11.4722 6.67598C11.6665 6.67598 11.8425 6.74488 12.0002 6.88268V6.13408C11.8712 6.04469 11.6625 6 11.3742 6C10.9568 6 10.6231 6.1406 10.373 6.42179C10.1245 6.70112 10.0002 7.0838 10.0002 7.56983C10.0002 7.99069 10.1165 8.33426 10.3491 8.60056C10.5817 8.86685 10.8859 9 11.2619 9Z" fill="#424242"/>
</svg>
