<svg width="16" height="16" viewBox="0 0 16 16" fill="none" xmlns="http://www.w3.org/2000/svg">
<path fill-rule="evenodd" clip-rule="evenodd" d="M2.00024 2L1.00024 3V6L2.00024 7H14.0002L15.0002 6V3L14.0002 2H2.00024ZM2.00024 3H3.00024H13.0002H14.0002V4V5V6H13.0002H3.00024H2.00024V5V4V3ZM1.00024 10L2.00024 9H5.00024L6.00024 10V13L5.00024 14H2.00024L1.00024 13V10ZM3.00024 10H2.00024V11V12V13H3.00024H4.00024H5.00024V12V11V10H4.00024H3.00024ZM10.0002 10L11.0002 9H14.0002L15.0002 10V13L14.0002 14H11.0002L10.0002 13V10ZM12.0002 10H11.0002V11V12V13H12.0002H13.0002H14.0002V12V11V10H13.0002H12.0002Z" fill="#424242"/>
</svg>
