<svg width="16" height="16" viewBox="0 0 16 16" fill="none" xmlns="http://www.w3.org/2000/svg">
<path fill-rule="evenodd" clip-rule="evenodd" d="M2.00024 5H4.00024V4H1.50024L1.00024 4.5V12.5L1.50024 13H4.00024V12H2.00024V5ZM14.5002 4H12.0002V5H14.0002V12H12.0002V13H14.5002L15.0002 12.5V4.5L14.5002 4ZM11.7603 6.56995L12.0002 7V9.51001L11.7002 9.95996L7.2002 11.96H6.74023L4.24023 10.46L4.00024 10.03V7.53003L4.30029 7.06995L8.80029 5.06995H9.26025L11.7603 6.56995ZM5.00024 9.70996L6.50024 10.61V9.28003L5.00024 8.38V9.70996ZM5.5802 7.56006L7.03027 8.43005L10.4203 6.93005L8.97021 6.06006L5.5802 7.56006ZM7.53027 10.73L11.0303 9.17004V7.77002L7.53027 9.31995V10.73Z" fill="#007ACC"/>
</svg>
