<svg width="16" height="16" viewBox="0 0 16 16" fill="none" xmlns="http://www.w3.org/2000/svg">
<path fill-rule="evenodd" clip-rule="evenodd" d="M7.22313 10.933C7.54888 11.1254 7.92188 11.2231 8.30013 11.215C8.63802 11.2218 8.97279 11.1492 9.27746 11.003C9.58213 10.8567 9.84817 10.6409 10.0541 10.373C10.5094 9.76519 10.7404 9.01867 10.7081 8.25998C10.7414 7.58622 10.5376 6.9221 10.1321 6.38298C9.93599 6.14161 9.68601 5.94957 9.40225 5.82228C9.11848 5.69498 8.80883 5.63597 8.49813 5.64997C8.07546 5.64699 7.66018 5.76085 7.29813 5.97898C7.18328 6.04807 7.07515 6.12775 6.97513 6.21698V3.47498H5.98413V11.1H6.97913V10.756C7.0554 10.8217 7.13702 10.8809 7.22313 10.933ZM7.85005 6.70006C8.03622 6.62105 8.23832 6.58677 8.44013 6.59998C8.61281 6.59452 8.78429 6.63054 8.94018 6.70501C9.09608 6.77948 9.23185 6.89023 9.33613 7.02798C9.59277 7.39053 9.71865 7.82951 9.69313 8.27297C9.71996 8.79748 9.57993 9.31701 9.29313 9.75698C9.18846 9.91527 9.04571 10.0447 8.87797 10.1335C8.71023 10.2223 8.52289 10.2675 8.33313 10.265C8.14958 10.2732 7.96654 10.24 7.79758 10.1678C7.62862 10.0956 7.47809 9.98628 7.35713 9.84797C7.10176 9.55957 6.96525 9.18506 6.97513 8.79998V8.19998C6.96324 7.78332 7.10287 7.3765 7.36813 7.05498C7.49883 6.90064 7.66388 6.77908 7.85005 6.70006ZM3.28926 5.67499C2.97035 5.67933 2.65412 5.734 2.35226 5.83699C2.06442 5.92293 1.79372 6.05828 1.55226 6.23699L1.45226 6.31399V7.51399L1.87526 7.15499C2.24603 6.80478 2.73158 6.60146 3.24126 6.58299C3.36617 6.57164 3.49194 6.59147 3.60731 6.64068C3.72267 6.6899 3.82402 6.76697 3.90226 6.86499C4.05245 7.0971 4.13264 7.36754 4.13326 7.64399L2.90026 7.82499C2.39459 7.87781 1.9155 8.07772 1.52226 8.39999C1.36721 8.55181 1.24363 8.73271 1.15859 8.93235C1.07355 9.13199 1.02873 9.34644 1.02668 9.56343C1.02464 9.78042 1.06542 9.99568 1.14668 10.1969C1.22795 10.3981 1.3481 10.5813 1.50026 10.736C1.66895 10.8904 1.86647 11.01 2.08149 11.0879C2.29651 11.1659 2.5248 11.2005 2.75326 11.19C3.14725 11.1931 3.53302 11.0774 3.86026 10.858C3.96178 10.7897 4.05744 10.7131 4.14626 10.629V11.073H5.08726V7.71499C5.12161 7.17422 4.95454 6.63988 4.61826 6.21499C4.45004 6.03285 4.24373 5.89003 4.01402 5.7967C3.78431 5.70336 3.53686 5.66181 3.28926 5.67499ZM4.14626 8.71599C4.16588 9.13435 4.02616 9.54459 3.75526 9.864C3.63714 10.0005 3.49023 10.1092 3.3251 10.1821C3.15998 10.2551 2.98073 10.2906 2.80026 10.286C2.69073 10.2945 2.5806 10.2812 2.47624 10.2469C2.37187 10.2125 2.27536 10.1579 2.19226 10.086C2.06104 9.93455 1.9888 9.74088 1.9888 9.54049C1.9888 9.34011 2.06104 9.14644 2.19226 8.99499C2.47347 8.82131 2.79258 8.71837 3.12226 8.69499L4.14226 8.54699L4.14626 8.71599ZM12.459 11.0325C12.7663 11.1638 13.0985 11.2261 13.4324 11.215C13.9273 11.227 14.4156 11.1006 14.8424 10.85L14.9654 10.775L14.9784 10.768V9.61504L14.5324 9.93504C14.2163 10.1592 13.8359 10.2747 13.4484 10.264C13.2499 10.2719 13.0522 10.2342 12.8705 10.1538C12.6889 10.0733 12.5281 9.95232 12.4004 9.80004C12.1146 9.42453 11.9728 8.95911 12.0004 8.48804C11.9739 7.98732 12.1355 7.49475 12.4534 7.10704C12.5936 6.94105 12.7698 6.80914 12.9685 6.7213C13.1672 6.63346 13.3833 6.592 13.6004 6.60004C13.9441 6.59844 14.281 6.69525 14.5714 6.87904L15.0004 7.14404V5.97004L14.8314 5.89704C14.4628 5.73432 14.0644 5.6502 13.6614 5.65004C13.3001 5.63991 12.9409 5.70762 12.608 5.84859C12.2752 5.98956 11.9766 6.20048 11.7324 6.46704C11.2263 7.02683 10.9584 7.76186 10.9854 8.51604C10.9569 9.22346 11.1958 9.91569 11.6544 10.455C11.8772 10.704 12.1518 10.9012 12.459 11.0325Z" fill="#424242"/>
</svg>
