<svg width="16" height="16" viewBox="0 0 16 16" fill="none" xmlns="http://www.w3.org/2000/svg">
<path fill-rule="evenodd" clip-rule="evenodd" d="M2.87313 1.10023C3.20793 1.23579 3.4757 1.498 3.61826 1.82988C3.69056 1.99959 3.72699 2.18242 3.72526 2.36688C3.72642 2.54999 3.69 2.7314 3.61826 2.89988C3.51324 3.14567 3.33807 3.35503 3.11466 3.50177C2.89126 3.64851 2.62955 3.72612 2.36226 3.72488C2.17948 3.72592 1.99842 3.68951 1.83026 3.61788C1.58322 3.51406 1.37252 3.33932 1.22478 3.11575C1.07704 2.89219 0.99891 2.62984 1.00026 2.36188C0.999374 2.17921 1.03543 1.99825 1.10626 1.82988C1.24362 1.50314 1.50353 1.24323 1.83026 1.10588C2.16357 0.966692 2.53834 0.964661 2.87313 1.10023ZM2.57526 2.86488C2.70564 2.80913 2.80951 2.70526 2.86526 2.57488C2.89314 2.50838 2.90742 2.43698 2.90726 2.36488C2.90838 2.2654 2.88239 2.1675 2.8321 2.08167C2.7818 1.99584 2.70909 1.92531 2.62176 1.87767C2.53443 1.83002 2.43577 1.80705 2.33638 1.81121C2.23698 1.81537 2.1406 1.8465 2.05755 1.90128C1.97451 1.95606 1.90794 2.03241 1.865 2.12215C1.82205 2.21188 1.80434 2.31161 1.81376 2.41065C1.82319 2.50968 1.85939 2.60428 1.9185 2.6843C1.9776 2.76433 2.05738 2.82675 2.14926 2.86488C2.28574 2.92089 2.43878 2.92089 2.57526 2.86488ZM6.43019 1.1095L1.10992 6.42977L1.79581 7.11567L7.11608 1.7954L6.43019 1.1095ZM11.5002 8.99999H12.5002V11.5H15.0002V12.5H12.5002V15H11.5002V12.5H9.00024V11.5H11.5002V8.99999ZM5.76801 9.52509L6.47512 10.2322L4.70735 12L6.47512 13.7677L5.76801 14.4748L4.00024 12.7071L2.23248 14.4748L1.52537 13.7677L3.29314 12L1.52537 10.2322L2.23248 9.52509L4.00024 11.2929L5.76801 9.52509ZM7.11826 5.32988C7.01466 5.08268 6.83997 4.87183 6.61636 4.72406C6.39275 4.57629 6.13028 4.49826 5.86226 4.49988C5.6796 4.49899 5.49864 4.53505 5.33026 4.60588C5.00353 4.74323 4.74362 5.00314 4.60626 5.32988C4.53612 5.49478 4.49922 5.67191 4.49766 5.8511C4.4961 6.0303 4.52992 6.20804 4.59718 6.37414C4.66443 6.54024 4.76381 6.69143 4.88961 6.81906C5.0154 6.94669 5.16515 7.04823 5.33026 7.11788C5.49892 7.18848 5.67993 7.22484 5.86276 7.22484C6.0456 7.22484 6.22661 7.18848 6.39526 7.11788C6.64225 7.01388 6.85295 6.83913 7.00082 6.61563C7.1487 6.39213 7.22713 6.12987 7.22626 5.86188C7.22679 5.67905 7.19005 5.49803 7.11826 5.32988ZM6.36526 6.07488C6.3379 6.13937 6.29854 6.19808 6.24926 6.24788C6.19932 6.29724 6.14066 6.33691 6.07626 6.36488C6.00878 6.39297 5.93635 6.40725 5.86326 6.40688C5.79015 6.40744 5.71769 6.39315 5.65026 6.36488C5.58565 6.33729 5.52693 6.29757 5.47726 6.24788C5.42715 6.19856 5.38738 6.13975 5.36026 6.07488C5.30425 5.9384 5.30425 5.78536 5.36026 5.64888C5.41561 5.51846 5.51965 5.41477 5.65026 5.35988C5.71761 5.33126 5.79008 5.31663 5.86326 5.31688C5.93642 5.31685 6.00884 5.33147 6.07626 5.35988C6.14062 5.38749 6.19928 5.42682 6.24926 5.47588C6.2981 5.52603 6.33741 5.58465 6.36526 5.64888C6.39364 5.7163 6.40827 5.78872 6.40827 5.86188C6.40827 5.93503 6.39364 6.00745 6.36526 6.07488ZM14.0002 3H10.0002V4H14.0002V3Z" fill="#424242"/>
</svg>
