<svg width="16" height="16" viewBox="0 0 16 16" fill="none" xmlns="http://www.w3.org/2000/svg">
<path d="M11.3403 9.70998H12.0503L14.7202 7.04005V6.32997L13.3803 5.00001H12.6803L10.8603 6.81007H5.86024V5.56007L7.72023 3.70997V3L5.72022 1H5.00025L1.00024 5.00001V5.70997L3.00025 7.70998H3.71027L4.85023 6.56007V12.35L5.35023 12.85H10.0003V13.37L11.3303 14.71H12.0402L14.7103 12.0401V11.33L13.3703 10H12.6703L10.8103 11.85H5.81025V7.84999H10.0003V8.32997L11.3403 9.70998ZM13.0303 6.06007L13.6602 6.68995L11.6602 8.68996L11.0303 8.06007L13.0303 6.06007ZM13.0303 11.0601L13.6602 11.69L11.6602 13.69L11.0303 13.0601L13.0303 11.0601ZM3.35022 6.65004L2.06024 5.34998L5.35023 2.06006L6.65028 3.34998L3.35022 6.65004Z" fill="#D67E00"/>
</svg>
