<svg width="16" height="16" viewBox="0 0 16 16" fill="none" xmlns="http://www.w3.org/2000/svg">
<path fill-rule="evenodd" clip-rule="evenodd" d="M14.0002 2H8.00024L7.00024 3V6H8.00024V3H14.0002V8H10.0002V9H14.0002L15.0002 8V3L14.0002 2ZM9.00024 6H13.0002V7H9.41024L9.00024 6.59V6ZM7.00024 7H2.00024L1.00024 8V13L2.00024 14H8.00024L9.00024 13V8L8.00024 7H7.00024ZM8.00024 13H2.00024V8H8.00024V9V13ZM3.00024 9H7.00024V10H3.00024V9ZM3.00024 11H7.00024V12H3.00024V11ZM9.00024 4H13.0002V5H9.00024V4Z" fill="#D67E00"/>
</svg>
