<svg width="16" height="16" viewBox="0 0 16 16" fill="none" xmlns="http://www.w3.org/2000/svg">
<path fill-rule="evenodd" clip-rule="evenodd" d="M7.00024 3L8.00024 2H14.0002L15.0002 3V8L14.0002 9H10.0002V8H14.0002V3H8.00024V6H7.00024V3ZM9.00024 9V8L8.00024 7H7.00024H2.00024L1.00024 8V13L2.00024 14H8.00024L9.00024 13V9ZM8.00024 8V9V13H2.00024V8H7.00024H8.00024ZM9.41446 7L9.00024 6.58579V6H13.0002V7H9.41446ZM9.00024 4H13.0002V5H9.00024V4ZM7.00024 10H3.00024V11H7.00024V10Z" fill="#007ACC"/>
</svg>
