<svg width="16" height="16" viewBox="0 0 16 16" fill="none" xmlns="http://www.w3.org/2000/svg">
<path fill-rule="evenodd" clip-rule="evenodd" d="M1.00024 3.5L1.50024 3H14.5002L15.0002 3.5L15.0002 12.5L14.5002 13H1.50024L1.00024 12.5V3.5ZM14.0002 4H8.00024L8.00024 7.49297L7.89818 7.49285L7.50024 7.49225V7.49237L3.92639 7.48807L6.01662 5.39784L5.30951 4.69073L2.3538 7.64645L2.3538 8.35355L5.30951 11.3093L6.01662 10.6022L3.90253 8.48807L7.89785 8.49285L8.00024 8.493V7.50702L11.9075 7.51222L9.79313 5.39784L10.5002 4.69073L13.456 7.64645V8.35355L10.5002 11.3093L9.79313 10.6022L11.8831 8.51222L8.00024 8.50702V12H14.0002V4Z" fill="#424242"/>
</svg>
