<svg width="16" height="16" viewBox="0 0 16 16" fill="none" xmlns="http://www.w3.org/2000/svg">
<path fill-rule="evenodd" clip-rule="evenodd" d="M2 2L1 3V12L2 13H14L15 12V3L14 2H2ZM2 12V3H14V12H2ZM5.3556 8.93017H6V7.22067C6 6.40689 5.68534 6 5.05603 6C4.92098 6 4.77083 6.02421 4.6056 6.07263C4.44181 6.12104 4.3125 6.17691 4.21767 6.24022V6.90503C4.45474 6.70205 4.70474 6.60056 4.96767 6.60056C5.22917 6.60056 5.35991 6.75698 5.35991 7.06983L4.76078 7.17318C4.25359 7.25885 4 7.57914 4 8.13408C4 8.39665 4.06106 8.60708 4.18319 8.76536C4.30675 8.92179 4.47557 9 4.68966 9C4.97989 9 5.19899 8.83985 5.34698 8.51955H5.3556V8.93017ZM5.35991 7.57542V7.76816C5.35991 7.9432 5.31968 8.08845 5.23922 8.20391C5.15876 8.3175 5.0546 8.3743 4.92672 8.3743C4.83477 8.3743 4.76149 8.34264 4.7069 8.27933C4.65374 8.21415 4.62716 8.13128 4.62716 8.03073C4.62716 7.80912 4.73779 7.6797 4.95905 7.64246L5.35991 7.57542ZM7.60094 8.62622H7.59343V8.93511H7V5H7.59343V6.67683H7.60094C7.74742 6.36708 7.95587 6.2122 8.22629 6.2122C8.47418 6.2122 8.6651 6.32987 8.79906 6.56522C8.93302 6.80056 9 7.12243 9 7.53082C9 7.97383 8.92175 8.32944 8.76526 8.59766C8.60876 8.86589 8.39969 9 8.13803 9C7.90141 9 7.72238 8.87541 7.60094 8.62622ZM7.58404 7.50487V7.77742C7.58404 7.94873 7.61972 8.09063 7.69108 8.20311C7.76244 8.3156 7.85383 8.37184 7.96526 8.37184C8.10047 8.37184 8.20501 8.30002 8.27887 8.15639C8.35399 8.01103 8.39155 7.80597 8.39155 7.54121C8.39155 7.32144 8.35712 7.15012 8.28826 7.02726C8.22066 6.90266 8.12363 6.84036 7.99718 6.84036C7.87825 6.84036 7.77934 6.9018 7.70047 7.02466C7.62285 7.14752 7.58404 7.30759 7.58404 7.50487ZM11.2616 9C11.5834 9 11.8295 8.94227 12 8.82682V8.11732C11.82 8.25512 11.636 8.32402 11.448 8.32402C11.2362 8.32402 11.0697 8.25233 10.9486 8.10894C10.8276 7.96369 10.767 7.76443 10.767 7.51117C10.767 7.25047 10.8299 7.04656 10.9558 6.89944C11.0832 6.75047 11.2553 6.67598 11.4719 6.67598C11.6663 6.67598 11.8423 6.74488 12 6.88268V6.13408C11.871 6.04469 11.6623 6 11.374 6C10.9566 6 10.6229 6.1406 10.3728 6.42179C10.1243 6.70112 10 7.0838 10 7.56983C10 7.99069 10.1163 8.33426 10.3489 8.60056C10.5814 8.86685 10.8857 9 11.2616 9Z" fill="#C5C5C5"/>
</svg>
