<svg width="16" height="16" viewBox="0 0 16 16" fill="none" xmlns="http://www.w3.org/2000/svg">
<path fill-rule="evenodd" clip-rule="evenodd" d="M8 1.00305C6.14348 1.00305 4.36299 1.74059 3.05023 3.05334C1.73748 4.3661 1 6.14654 1 8.00305V8.43311C1.09 9.94311 2.91 10.2231 4 9.13306C4.35648 8.81625 4.82054 8.64759 5.29724 8.66162C5.77395 8.67565 6.22729 8.87127 6.56451 9.2085C6.90174 9.54572 7.09736 9.99912 7.11139 10.4758C7.12542 10.9525 6.95682 11.4166 6.64001 11.7731C5.54001 12.9331 5.85 14.843 7.44 14.973H8.03998C9.89649 14.973 11.677 14.2356 12.9897 12.9229C14.3025 11.6101 15.04 9.82954 15.04 7.97302C15.04 6.11651 14.3025 4.33607 12.9897 3.02332C11.677 1.71056 9.89649 0.973022 8.03998 0.973022L8 1.00305ZM8 14.0031H7.47998C7.34751 13.9989 7.22047 13.9495 7.12 13.863C7.04052 13.7807 6.98815 13.6761 6.96997 13.5631C6.9381 13.3682 6.95328 13.1684 7.01416 12.9806C7.07504 12.7927 7.17989 12.6222 7.32001 12.483C7.84048 11.9474 8.13165 11.2299 8.13165 10.483C8.13165 9.73615 7.84048 9.0187 7.32001 8.48303C7.05348 8.21635 6.73699 8.00481 6.38867 7.86047C6.04036 7.71614 5.66702 7.64185 5.28998 7.64185C4.91294 7.64185 4.5396 7.71614 4.19128 7.86047C3.84297 8.00481 3.52654 8.21635 3.26001 8.48303C3.15068 8.61081 3.01089 8.709 2.85358 8.76843C2.69626 8.82786 2.52649 8.84657 2.35999 8.823C2.27593 8.80694 2.19903 8.76498 2.14001 8.703C2.07131 8.6224 2.03556 8.5189 2.03998 8.41309V8.04309C2.03998 6.8564 2.39192 5.69629 3.05121 4.70959C3.7105 3.7229 4.64754 2.95388 5.7439 2.49976C6.84025 2.04563 8.04669 1.92681 9.21057 2.15833C10.3745 2.38984 11.4435 2.9613 12.2827 3.80042C13.1218 4.63953 13.6932 5.70867 13.9247 6.87256C14.1562 8.03644 14.0374 9.24275 13.5833 10.3391C13.1291 11.4355 12.3601 12.3726 11.3734 13.0319C10.3867 13.6911 9.22667 14.0431 8.03998 14.0431L8 14.0031ZM9 3.99683C9 4.54911 8.55228 4.99683 8 4.99683C7.44771 4.99683 7 4.54911 7 3.99683C7 3.44454 7.44771 2.99683 8 2.99683C8.55228 2.99683 9 3.44454 9 3.99683ZM12 11.0037C12 11.5559 11.5523 12.0037 11 12.0037C10.4477 12.0037 10 11.5559 10 11.0037C10 10.4514 10.4477 10.0037 11 10.0037C11.5523 10.0037 12 10.4514 12 11.0037ZM5 6.00415C5.55229 6.00415 6 5.55644 6 5.00415C6 4.45187 5.55229 4.00415 5 4.00415C4.44772 4.00415 4 4.45187 4 5.00415C4 5.55644 4.44772 6.00415 5 6.00415ZM12 5.00415C12 5.55644 11.5523 6.00415 11 6.00415C10.4477 6.00415 10 5.55644 10 5.00415C10 4.45187 10.4477 4.00415 11 4.00415C11.5523 4.00415 12 4.45187 12 5.00415ZM13.0001 7.99939C13.0001 8.55167 12.5524 8.99939 12.0001 8.99939C11.4478 8.99939 11.0001 8.55167 11.0001 7.99939C11.0001 7.4471 11.4478 6.99939 12.0001 6.99939C12.5524 6.99939 13.0001 7.4471 13.0001 7.99939Z" fill="#C5C5C5"/>
</svg>
