<?xml version="1.0" encoding="UTF-8" standalone="no"?>
<svg width="210" xmlns="http://www.w3.org/2000/svg" version="1.1" height="132">
 <defs id="defs4">
  <linearGradient id="linearGradient3801" x1="437.2" gradientUnits="userSpaceOnUse" y1="736.22" gradientTransform="matrix(2.5 0 0 2.4994 -650.58 -1143.5)" x2="437.2" y2="789.03">
   <stop id="stop3797" stop-color="#d6dee6" offset="0"/>
   <stop id="stop3799" stop-color="#0a0a0a" offset="1"/>
  </linearGradient>
 </defs>
 <g id="layer1" transform="translate(-338.72 -696.64)">
  <path id="path2996" d="m433.25 696.64 22.5 102.48h18.359l20.625-102.48h-15.859l-13.906 82.637-16.328-82.637h-15.391zm-15.781 0.0779c-4.8155 0-8.75 3.9249-8.75 8.748 0 4.823 3.9345 8.6698 8.75 8.6698s8.75-3.8468 8.75-8.6698-3.9345-8.748-8.75-8.748zm-78.672 2.4213-0.0777 99.976h27.422c12.099 0 27.734-19.995 27.734-34.992v-32.414c0-13.878-12.372-32.57-27.656-32.57h-27.422zm14.922 9.9977h10.703c4.1863 0 14.297 12.278 14.297 21.714v29.134c0 11.773-10.164 26.634-14.219 26.634h-10.781v-77.482zm55 14.996v84.668c0 3.8417-5.7973 7.5852-12.5 7.8107l1.1719 12.028c10.578-0.38659 26.328-6.8649 26.328-19.995v-84.511h-15zm92.5 0v51.863c0 13.458 11.511 23.12 18.75 23.12 6.0328 0 11.765-5.8335 16.25-10.076v10.076h12.5v-74.982h-15v53.737c0 3.906-4.0903 8.7479-8.75 8.7479s-8.75-4.7783-8.75-8.7479v-53.737h-15z" fill="url(#linearGradient3801)"/>
 </g>
</svg>