<?xml version="1.0" encoding="UTF-8" standalone="no"?>
<!-- Created with Inkscape (http://www.inkscape.org/) -->

<svg
   xmlns:dc="http://purl.org/dc/elements/1.1/"
   xmlns:cc="http://creativecommons.org/ns#"
   xmlns:rdf="http://www.w3.org/1999/02/22-rdf-syntax-ns#"
   xmlns:svg="http://www.w3.org/2000/svg"
   xmlns="http://www.w3.org/2000/svg"
   xmlns:xlink="http://www.w3.org/1999/xlink"
   xmlns:sodipodi="http://sodipodi.sourceforge.net/DTD/sodipodi-0.dtd"
   xmlns:inkscape="http://www.inkscape.org/namespaces/inkscape"
   width="75"
   height="75"
   viewBox="0 0 75 75"
   id="svg4774"
   version="1.1"
   inkscape:version="0.91 r13725"
   sodipodi:docname="mono-logo.svg">
  <defs
     id="defs4776">
    <linearGradient
       inkscape:collect="always"
       id="linearGradient4292">
      <stop
         style="stop-color:#e3e3e3;stop-opacity:1;"
         offset="0"
         id="stop4294" />
      <stop
         id="stop4300"
         offset="0.22809285"
         style="stop-color:#e3e3e3;stop-opacity:1" />
      <stop
         style="stop-color:#e3e3e3;stop-opacity:0.1875"
         offset="0.61404645"
         id="stop4302" />
      <stop
         style="stop-color:#e3e3e3;stop-opacity:0;"
         offset="1"
         id="stop4296" />
    </linearGradient>
    <linearGradient
       inkscape:collect="always"
       id="linearGradient4275">
      <stop
         style="stop-color:#6c5d74;stop-opacity:1"
         offset="0"
         id="stop4277" />
      <stop
         style="stop-color:#ffffff;stop-opacity:1"
         offset="1"
         id="stop4279" />
    </linearGradient>
    <linearGradient
       id="linearGradient4221">
      <stop
         style="stop-color:#c0c0dc;stop-opacity:1"
         offset="0"
         id="stop4223" />
      <stop
         id="stop4225"
         offset="0.11419532"
         style="stop-color:#c0c0dd;stop-opacity:1" />
      <stop
         style="stop-color:#a191bf;stop-opacity:1"
         offset="0.47871608"
         id="stop4227" />
      <stop
         style="stop-color:#625681;stop-opacity:1"
         offset="1"
         id="stop4229" />
    </linearGradient>
    <linearGradient
       gradientUnits="userSpaceOnUse"
       y2="951.89844"
       x2="46.893108"
       y1="934.5658"
       x1="-0.65353984"
       id="linearGradient7595"
       xlink:href="#linearGradient4274"
       gradientTransform="matrix(0.4887125,0,0,0.4887125,7.5674041,560.78197)" />
    <linearGradient
       id="linearGradient4274">
      <stop
         style="stop-color:#eeeeec;stop-opacity:1"
         offset="0"
         id="stop4276" />
      <stop
         id="stop4181"
         offset="0.0837483"
         style="stop-color:#eeeeec;stop-opacity:1" />
      <stop
         style="stop-color:#eeeeec;stop-opacity:1"
         offset="0.3513594"
         id="stop4280" />
      <stop
         style="stop-color:#e0d5d5;stop-opacity:1"
         offset="1"
         id="stop4282" />
    </linearGradient>
    <linearGradient
       gradientTransform="matrix(0.19229712,0.06206447,-0.10031905,0.17023858,27.947597,914.55215)"
       gradientUnits="userSpaceOnUse"
       y2="672.25775"
       x2="396.9097"
       y1="608.87836"
       x1="303.64438"
       id="linearGradient4317"
       xlink:href="#linearGradient7589" />
    <linearGradient
       id="linearGradient7589">
      <stop
         style="stop-color:#351347;stop-opacity:1"
         offset="0"
         id="stop7591" />
      <stop
         style="stop-color:#5c3566;stop-opacity:0;"
         offset="1"
         id="stop7593" />
    </linearGradient>
    <linearGradient
       gradientTransform="matrix(0.07485012,0.08932098,-0.08626544,0.06221301,54.92473,963.36648)"
       gradientUnits="userSpaceOnUse"
       y2="364.66345"
       x2="377.03168"
       y1="425.15848"
       x1="306.88434"
       id="linearGradient4301"
       xlink:href="#linearGradient4311" />
    <linearGradient
       id="linearGradient4311">
      <stop
         id="stop4313"
         offset="0"
         style="stop-color:#351e47;stop-opacity:1" />
      <stop
         id="stop4315"
         offset="1"
         style="stop-color:#5c3566;stop-opacity:0;" />
    </linearGradient>
    <linearGradient
       gradientTransform="matrix(0.15153279,0.0143268,-0.0143268,0.15153279,-12.641966,950.28506)"
       gradientUnits="userSpaceOnUse"
       y2="429.49622"
       x2="329.16669"
       y1="527.33502"
       x1="267.65439"
       id="linearGradient4230"
       xlink:href="#linearGradient4274" />
    <linearGradient
       gradientTransform="matrix(-0.13467,0.03941451,0.04093431,0.13986281,63.876342,935.32605)"
       gradientUnits="userSpaceOnUse"
       y2="465.96136"
       x2="190.84904"
       y1="511.44083"
       x1="308.41003"
       id="linearGradient5577"
       xlink:href="#linearGradient4196" />
    <linearGradient
       id="linearGradient4196">
      <stop
         id="stop4198"
         offset="0"
         style="stop-color:#ffffff;stop-opacity:1" />
      <stop
         style="stop-color:#fffff2;stop-opacity:1"
         offset="0.11419532"
         id="stop4200" />
      <stop
         id="stop4202"
         offset="0.47871608"
         style="stop-color:#d2acd2;stop-opacity:1" />
      <stop
         id="stop4204"
         offset="1"
         style="stop-color:#123069;stop-opacity:1" />
    </linearGradient>
    <radialGradient
       gradientTransform="matrix(0.3389967,0.21474015,-0.19688621,0.26982602,-1209.2255,-630.6322)"
       gradientUnits="userSpaceOnUse"
       r="169"
       fy="472.51749"
       fx="322.17105"
       cy="472.51749"
       cx="322.17105"
       id="radialGradient5136-0-6-65"
       xlink:href="#linearGradient6003" />
    <linearGradient
       id="linearGradient6003">
      <stop
         style="stop-color:#c2c6db;stop-opacity:1"
         offset="0"
         id="stop6005" />
      <stop
         id="stop6007"
         offset="0.33969504"
         style="stop-color:#bab1e0;stop-opacity:1" />
      <stop
         id="stop6009"
         offset="0.44414869"
         style="stop-color:#8d77a3;stop-opacity:1" />
      <stop
         style="stop-color:#675a84;stop-opacity:1"
         offset="0.55217898"
         id="stop6011" />
      <stop
         style="stop-color:#050846;stop-opacity:1"
         offset="1"
         id="stop6013" />
    </linearGradient>
    <radialGradient
       gradientTransform="matrix(0.19025707,0.10471339,-0.11049955,0.13157478,-966.76195,-798.66855)"
       gradientUnits="userSpaceOnUse"
       r="169"
       fy="472.51749"
       fx="322.17105"
       cy="472.51749"
       cx="322.17105"
       id="radialGradient5136-0-6-6-8-3-1"
       xlink:href="#linearGradient6003" />
    <radialGradient
       gradientTransform="matrix(0.1361054,0.07855904,-0.0790488,0.09871133,-780.58233,-1164.6467)"
       gradientUnits="userSpaceOnUse"
       r="169"
       fy="472.51749"
       fx="322.17105"
       cy="472.51749"
       cx="322.17105"
       id="radialGradient5136-0-6-6-8-8-8"
       xlink:href="#linearGradient6003" />
    <radialGradient
       gradientTransform="matrix(0.18445402,0.09675949,-0.10712923,0.12158052,-859.37376,-1098.3051)"
       gradientUnits="userSpaceOnUse"
       r="169"
       fy="472.51749"
       fx="322.17105"
       cy="472.51749"
       cx="322.17105"
       id="radialGradient5136-0-6-6-8-6"
       xlink:href="#linearGradient6003" />
    <radialGradient
       gradientTransform="matrix(0.33582312,0.20512484,-0.19504306,0.25774431,-945.14244,-758.65362)"
       gradientUnits="userSpaceOnUse"
       r="169"
       fy="472.51749"
       fx="322.17105"
       cy="472.51749"
       cx="322.17105"
       id="radialGradient5136-0-6-6-2"
       xlink:href="#linearGradient6003" />
    <radialGradient
       gradientTransform="matrix(0.35330232,0.22380216,-0.20519478,0.28121264,-702.27629,-398.30317)"
       gradientUnits="userSpaceOnUse"
       r="169"
       fy="472.51749"
       fx="322.17105"
       cy="472.51749"
       cx="322.17105"
       id="radialGradient5136-0-6-65-3"
       xlink:href="#linearGradient6003" />
    <radialGradient
       gradientTransform="matrix(0.19828589,0.10913228,-0.11516262,0.13712722,-658.03031,-481.71303)"
       gradientUnits="userSpaceOnUse"
       r="169"
       fy="472.51749"
       fx="322.17105"
       cy="472.51749"
       cx="322.17105"
       id="radialGradient5136-0-6-6-8-3-1-9"
       xlink:href="#linearGradient6003" />
    <radialGradient
       gradientTransform="matrix(0.14184903,0.08187422,-0.08238465,0.10287694,-643.98232,-766.01725)"
       gradientUnits="userSpaceOnUse"
       r="169"
       fy="472.51749"
       fx="322.17105"
       cy="472.51749"
       cx="322.17105"
       id="radialGradient5136-0-6-6-8-8-8-5"
       xlink:href="#linearGradient6003" />
    <radialGradient
       gradientTransform="matrix(0.34999481,0.21378108,-0.20327385,0.26862109,-680.60673,-453.66251)"
       gradientUnits="userSpaceOnUse"
       r="169"
       fy="472.51749"
       fx="322.17105"
       cy="472.51749"
       cx="322.17105"
       id="radialGradient5136-0-6-6-2-1"
       xlink:href="#linearGradient6003" />
    <radialGradient
       gradientTransform="matrix(0.19223796,0.10084273,-0.11165007,0.1267112,-724.74062,-701.33347)"
       gradientUnits="userSpaceOnUse"
       r="169"
       fy="472.51749"
       fx="322.17105"
       cy="472.51749"
       cx="322.17105"
       id="radialGradient5136-0-6-6-8-6-9"
       xlink:href="#linearGradient6003" />
    <radialGradient
       inkscape:collect="always"
       xlink:href="#linearGradient4292"
       id="radialGradient4298"
       cx="-290.0072"
       cy="1003.9023"
       fx="-290.0072"
       fy="1003.9023"
       r="5.1012106"
       gradientUnits="userSpaceOnUse"
       gradientTransform="matrix(1.193846,0.03250671,-0.00956682,0.39626025,-590.16501,58.036072)" />
    <linearGradient
       inkscape:collect="always"
       xlink:href="#linearGradient4275"
       id="linearGradient4281-3"
       x1="-284.07013"
       y1="1007.8895"
       x2="-339.81476"
       y2="951.63043"
       gradientUnits="userSpaceOnUse"
       gradientTransform="matrix(0.70432551,-0.24522858,0.24522858,0.70432551,5.4417854,271.13943)" />
  </defs>
  <sodipodi:namedview
     id="base"
     pagecolor="#ffffff"
     bordercolor="#666666"
     borderopacity="1.0"
     inkscape:pageopacity="0.0"
     inkscape:pageshadow="2"
     inkscape:zoom="2.8284271"
     inkscape:cx="75.796915"
     inkscape:cy="31.860211"
     inkscape:document-units="px"
     inkscape:current-layer="g5039"
     showgrid="false"
     units="px"
     inkscape:window-width="1366"
     inkscape:window-height="704"
     inkscape:window-x="0"
     inkscape:window-y="27"
     inkscape:window-maximized="1" />
  <metadata
     id="metadata4779">
    <rdf:RDF>
      <cc:Work
         rdf:about="">
        <dc:format>image/svg+xml</dc:format>
        <dc:type
           rdf:resource="http://purl.org/dc/dcmitype/StillImage" />
        <dc:title></dc:title>
      </cc:Work>
    </rdf:RDF>
  </metadata>
  <g
     inkscape:label="spacemacs"
     inkscape:groupmode="layer"
     id="layer1"
     transform="translate(0,-977.36216)"
     style="display:inline">
    <g
       style="display:inline"
       transform="matrix(1.9720218,0.6866088,-0.6866088,1.9720218,688.07058,-1060.1466)"
       id="g5039"
       inkscape:export-filename="/home/nasser/Playground/spacemacs_gh-page/img/mono-logo.svg"
       inkscape:export-xdpi="90"
       inkscape:export-ydpi="90">
      <g
         id="g4277"
         transform="translate(0.05368748,0.02533365)">
        <path
           sodipodi:nodetypes="cccccccccc"
           inkscape:connector-curvature="0"
           id="circle4283"
           d="m 35.274091,1023.9645 c 0.08805,0.016 0.175966,0.032 0.263755,0.05 -0.08779,-0.017 -0.17571,-0.034 -0.263755,-0.05 z m 0.81178,0.1692 c 5.642232,1.4105 10.194557,5.5679 12.109744,11.0594 3.133947,9.0011 -1.622307,18.8385 -10.623397,21.9725 -2.860109,0.9878 -5.929668,1.2062 -8.900837,0.6334 3.158147,0.7294 6.457878,0.5547 9.521335,-0.5042 9.00113,-3.134 13.757378,-12.9714 10.623363,-21.9725 -1.993722,-5.6999 -6.821592,-9.9431 -12.730208,-11.1886 z"
           style="color:#000000;clip-rule:nonzero;display:inline;overflow:visible;visibility:visible;opacity:1;isolation:auto;mix-blend-mode:normal;color-interpolation:sRGB;color-interpolation-filters:linearRGB;solid-color:#000000;solid-opacity:1;fill:#e3e3e3;fill-opacity:1;fill-rule:nonzero;stroke:none;stroke-width:1;stroke-linecap:square;stroke-linejoin:round;stroke-miterlimit:4;stroke-dasharray:none;stroke-dashoffset:0;stroke-opacity:1;marker:none;color-rendering:auto;image-rendering:auto;shape-rendering:auto;text-rendering:auto;enable-background:accumulate" />
        <path
           id="path4186-2-6"
           d="m 26.279015,1024.6289 a 17.257565,17.257565 0 0 0 -6.22657,3.8298 c 5.900065,1.0311 12.11316,4.3637 16.033023,6.9704 l -1.03e-4,10e-5 c 0.793181,0.5378 1.499101,1.0103 2.142681,1.4375 -9.7e-4,-0.01 -0.002,-0.019 -0.0029,-0.028 -0.262233,-2.556 -2.90348,-6.9698 -5.530064,-9.2411 -0.254884,-0.2204 -0.45299,-0.4203 -0.439976,-0.4441 l 0.0092,1e-4 -9.4e-5,-0.01 c 0.144583,-0.014 1.871861,0.8642 2.543261,1.297 1.176985,0.7587 1.703651,1.2548 2.632712,2.4797 2.417257,3.1871 4.204987,5.8486 6.011036,8.9487 0.906097,1.5553 2.552337,4.3787 2.83075,4.931 0.03602,0.075 0.0484,0.1788 0.05437,0.199 -0.03587,-0.019 -0.128195,-0.062 -0.518739,-0.2218 -1.145072,-0.4659 -3.284596,-1.0154 -5.323796,-1.3672 -2.544509,-0.4391 -4.999111,-0.7181 -10.428464,-1.1854 -4.955888,-0.4266 -7.249114,-0.653 -9.071162,-0.8953 l -1.632709,-0.2084 c 0.306208,0.3524 0.633371,0.7304 1.01773,1.1759 0,0 3.136436,0.5535 3.620073,0.8847 0,0 5.220476,4.8337 7.845556,7.863 1.963766,2.2852 4.236609,5.0201 5.247193,5.6436 0.04218,0.025 0.08026,0.047 0.113963,0.065 -1.512841,0.1439 -9.033696,-0.812 -9.033696,-0.812 -2.784987,-5.7315 -7.219846,-12.124 -12.303704,-18.4726 -0.170728,-0.1734 -0.295649,-0.3019 -0.297719,-0.3089 -0.0063,-0.021 0.248201,0.098 0.565803,0.2649 3.54685,1.8682 9.930656,2.4632 16.156778,1.506 1.77523,-0.2729 3.753457,-0.8919 4.904729,-1.3673 -0.602343,-0.3873 -1.257782,-0.8126 -1.985837,-1.2911 -6.750774,-4.4359 -12.195393,-5.3892 -16.819173,-5.5204 -0.120369,0 -0.238456,-0.01 -0.355409,-0.01 a 17.257565,17.257565 0 0 0 -2.382159,15.8486 17.257565,17.257565 0 0 0 21.972463,10.6234 17.257565,17.257565 0 0 0 10.623393,-21.9725 17.257565,17.257565 0 0 0 -21.972458,-10.6234 z m 11.222242,5.4005 c 0.0013,0.01 0.0012,0.01 10e-4,0.01 0,0 1.03e-4,-10e-5 1.03e-4,-10e-5 -3.82e-4,0 -8.95e-4,-0.01 -8.21e-4,-0.01 0.963046,0.4424 2.579669,1.3913 4.148632,1.6965 1.540218,0.9718 2.5807,2.092 3.618318,2.7447 -0.385919,-0.1514 -1.969841,-0.7952 -1.969841,-0.7952 0,0 -2.488989,-1.1209 -3.927047,-1.9123 -0.552702,-0.304 -0.614014,-0.3648 -0.946636,-0.6263 -0.129878,-0.1023 -0.763071,-0.9907 -0.922626,-1.1029 1.91e-4,0 -1.76e-4,-3e-4 -1.03e-4,10e-5 -2.25e-4,-2e-4 -5.97e-4,-6e-4 -8.21e-4,0 l -2.21e-4,-0.01 z"
           style="color:#000000;clip-rule:nonzero;display:inline;overflow:visible;visibility:visible;opacity:1;isolation:auto;mix-blend-mode:normal;color-interpolation:sRGB;color-interpolation-filters:linearRGB;solid-color:#000000;solid-opacity:1;fill:url(#linearGradient4281-3);fill-opacity:1;fill-rule:nonzero;stroke:none;stroke-width:1;stroke-linecap:square;stroke-linejoin:round;stroke-miterlimit:4;stroke-dasharray:none;stroke-dashoffset:0;stroke-opacity:1;marker:none;color-rendering:auto;image-rendering:auto;shape-rendering:auto;text-rendering:auto;enable-background:accumulate"
           inkscape:connector-curvature="0" />
        <ellipse
           ry="3.8174121"
           rx="6.4108696"
           transform="matrix(0.38376668,-0.92343009,0.921023,0.3895082,0,0)"
           cy="446.41556"
           cx="-945.99316"
           id="path4287"
           style="color:#000000;clip-rule:nonzero;display:inline;overflow:visible;visibility:visible;opacity:1;isolation:auto;mix-blend-mode:normal;color-interpolation:sRGB;color-interpolation-filters:linearRGB;solid-color:#000000;solid-opacity:1;fill:url(#radialGradient4298);fill-opacity:1;fill-rule:nonzero;stroke:none;stroke-width:1px;stroke-linecap:butt;stroke-linejoin:miter;stroke-miterlimit:4;stroke-dasharray:none;stroke-dashoffset:0;stroke-opacity:1;marker:none;color-rendering:auto;image-rendering:auto;shape-rendering:auto;text-rendering:auto;enable-background:accumulate" />
      </g>
    </g>
  </g>
</svg>
