<?xml version="1.0" encoding="utf-8"?>
<!-- Generator: Adobe Illustrator 16.0.0, SVG Export Plug-In . SVG Version: 6.00 Build 0)  -->
<!DOCTYPE svg PUBLIC "-//W3C//DTD SVG 1.1//EN" "http://www.w3.org/Graphics/SVG/1.1/DTD/svg11.dtd">
<svg version="1.1"
	 id="svg4774" xmlns:dc="http://purl.org/dc/elements/1.1/" xmlns:cc="http://creativecommons.org/ns#" xmlns:rdf="http://www.w3.org/1999/02/22-rdf-syntax-ns#" xmlns:svg="http://www.w3.org/2000/svg" xmlns:sodipodi="http://sodipodi.sourceforge.net/DTD/sodipodi-0.dtd" xmlns:inkscape="http://www.inkscape.org/namespaces/inkscape" sodipodi:docname="spacemacs-logo-mono.svg" inkscape:version="0.91 r13725"
	 xmlns="http://www.w3.org/2000/svg" xmlns:xlink="http://www.w3.org/1999/xlink" x="0px" y="0px" width="666px" height="666px"
	 viewBox="0 0 666 666" enable-background="new 0 0 666 666" xml:space="preserve">
<sodipodi:namedview  showgrid="false" inkscape:cy="306.75753" inkscape:cx="448.56351" inkscape:zoom="0.5" borderopacity="1.0" bordercolor="#666666" pagecolor="#ffffff" id="base" units="px" inkscape:window-maximized="1" inkscape:window-y="0" inkscape:current-layer="g5039" inkscape:document-units="px" inkscape:pageopacity="0.0" inkscape:window-height="706" inkscape:window-x="0" inkscape:window-width="1366" inkscape:pageshadow="2">
	</sodipodi:namedview>
<g id="layer1" transform="translate(0,-386.36216)" inkscape:label="spacemacs" inkscape:groupmode="layer">
	<g id="g5039" transform="matrix(12.9592,4.5120702,-4.5120702,12.9592,4535.5464,-12837.419)">
		<circle id="circle4283" fill="#E3E3E3" cx="36.303" cy="1033.451" r="23.14"/>
		
			<linearGradient id="path4186-2_1_" gradientUnits="userSpaceOnUse" x1="-17.3633" y1="989.3434" x2="-73.108" y2="1045.6025" gradientTransform="matrix(10.755 -8.5223 -8.5223 -10.755 8681.167 11539.0654)">
			<stop  offset="0" style="stop-color:#6C5D74"/>
			<stop  offset="1" style="stop-color:#FFFFFF"/>
		</linearGradient>
		<circle id="path4186-2" fill="url(#path4186-2_1_)" cx="35.471" cy="1033.277" r="23.14"/>
		<path id="path5256-9" sodipodi:nodetypes="ccccccsccccccc" inkscape:connector-curvature="0" fill="#312F38" d="M41.011,1025.906
			c14.519,9.845,9.409,4.918,10.261,11.096c-0.081,0.146-0.169,0.287-0.264,0.423c-0.012-0.014-0.024-0.026-0.037-0.04
			c-0.01-0.012-0.022-0.019-0.032-0.029c0.02-0.032,0.04-0.064,0.059-0.097c-1.226-5.073,2.687-1.119-11.157-10.216
			c-9.052-5.948-16.352-7.226-22.552-7.402c-3.488-0.099-5.914,0.873-6.988,2.799c-1.341,2.418-0.913,3.816,1.995,8.252
			c-0.091,0.326-0.033,0.494-0.142,0.873c-3.852-5.387-5.017-9.798-3.447-12.672c0.993-1.807,2.709-2.602,5.693-2.756
			C23.617,1015.931,34.601,1021.643,41.011,1025.906L41.011,1025.906z"/>
		<path id="path4234" sodipodi:nodetypes="cccccccc" inkscape:connector-curvature="0" fill="#312F38" d="M19.951,1035.122
			c0,0,4.205,0.742,4.854,1.186c0,0,7,6.481,10.52,10.543c2.633,3.064,5.681,6.731,7.036,7.567c0.057,0.034,0.107,0.063,0.153,0.087
			c-2.028,0.193-12.113-1.089-12.113-1.089c-3.763-7.745-9.772-16.389-16.655-24.967
			C15.946,1030.502,16.866,1031.546,19.951,1035.122L19.951,1035.122z"/>
		<path id="path6025-8" inkscape:connector-curvature="0" fill="#312F38" d="M42.91,1018.671c0.212,0.147,1.064,1.342,1.238,1.48
			c0.446,0.351,0.528,0.432,1.269,0.84c1.928,1.061,5.266,2.564,5.266,2.564s2.124,0.863,2.641,1.066
			c-1.391-0.875-2.787-2.377-4.852-3.68c-2.104-0.409-4.271-1.682-5.563-2.275c0,0,0.004,0.02,0,0L42.91,1018.671z"/>
		<path id="path6023" inkscape:connector-curvature="0" fill="#312F38" d="M35.887,1014.804c0.194-0.019,2.51,1.159,3.41,1.739
			c1.578,1.017,2.284,1.683,3.53,3.325c3.241,4.273,5.638,7.842,8.06,11.999c1.215,2.085,3.422,5.871,3.796,6.612
			c0.048,0.101,0.065,0.24,0.073,0.267c-0.048-0.025-0.172-0.083-0.696-0.297c-1.535-0.625-4.404-1.362-7.139-1.833
			c-3.412-0.589-6.703-0.963-13.983-1.589c-6.645-0.572-9.72-0.876-12.163-1.201l-2.24-0.286l-2.354-2.612
			c-1.464-1.453-2.669-2.664-2.677-2.693c-0.008-0.028,0.333,0.131,0.759,0.355c4.756,2.505,13.315,3.303,21.664,2.019
			c2.97-0.457,6.369-1.636,7.501-2.262c0.218-0.12,0.381-0.214,0.465-0.284c0.002,0,0.005,0.001,0.007,0.001
			c0.001-0.093-0.011-0.19-0.019-0.267c-0.352-3.427-3.893-9.345-7.415-12.391c-0.342-0.295-0.607-0.563-0.59-0.595
			c0.002,0,0.006,0,0.012,0L35.887,1014.804z"/>
		
			<radialGradient id="path4287_1_" cx="-17.7063" cy="989.9247" r="5.1003" gradientTransform="matrix(6.2955 -19.9235 -9.231 3.7576 9306.6357 -3030.4631)" gradientUnits="userSpaceOnUse">
			<stop  offset="0" style="stop-color:#E3E3E3"/>
			<stop  offset="0.2281" style="stop-color:#E3E3E3"/>
			<stop  offset="0.614" style="stop-color:#E3E3E3;stop-opacity:0.1875"/>
			<stop  offset="1" style="stop-color:#E3E3E3;stop-opacity:0"/>
		</radialGradient>
		<path id="path4287" fill="url(#path4287_1_)" d="M52.506,1040.098c1.822-4.384,5.41-7.045,8.013-5.944
			c2.604,1.101,3.237,5.548,1.415,9.932c-1.822,4.384-5.41,7.045-8.013,5.944C51.318,1048.928,50.684,1044.481,52.506,1040.098z"/>
	</g>
</g>
</svg>
