/* XPM */
static char *nyan_frame_6[] = {
/* columns rows colors chars-per-pixel */
"25 15 144 2 ",
"   c black",
".  c #020F06",
"X  c #070B0F",
"o  c #08090C",
"O  c #0C0C0C",
"+  c #020912",
"@  c #000A14",
"#  c #111111",
"$  c #151515",
"%  c #1D1711",
"&  c #251E17",
"*  c #083417",
"=  c #212305",
"-  c #292B00",
";  c #3C3400",
":  c #3F1E31",
">  c #04323D",
",  c #202020",
"<  c #222126",
"1  c #252525",
"2  c #2A2A2A",
"3  c gray18",
"4  c #3E2525",
"5  c #2C2F32",
"6  c #342D34",
"7  c gray20",
"8  c gray22",
"9  c #3A3C3E",
"0  c #3F3F3F",
"q  c #490C00",
"w  c #7C0B10",
"e  c #4C2400",
"r  c #4C3100",
"t  c #483F00",
"y  c #403326",
"u  c #402A38",
"i  c #24451F",
"p  c #394C25",
"a  c #241856",
"s  c #1F265A",
"d  c #1E297A",
"f  c #522244",
"g  c #414141",
"h  c #464646",
"j  c gray29",
"k  c gray31",
"l  c #554755",
"z  c #5E4D5E",
"x  c #515151",
"c  c #5C5650",
"v  c #5A5A5A",
"b  c #5D5D5D",
"n  c #745D46",
"m  c #634463",
"M  c #6D4C6D",
"N  c #656565",
"B  c #6C6C6C",
"V  c gray45",
"C  c #767676",
"Z  c #797979",
"A  c #7C7C7C",
"S  c #BF1119",
"D  c #F52A02",
"F  c #FC7800",
"G  c #947256",
"H  c #9A7B7B",
"J  c #A57272",
"K  c #26B210",
"L  c #438500",
"P  c #2CCB13",
"I  c #1AAF4D",
"U  c #20D15C",
"Y  c #868F00",
"T  c #988600",
"R  c #889000",
"E  c #FBA500",
"W  c #EACE00",
"Q  c #F0D300",
"!  c #BF9973",
"~  c #263498",
"^  c #39329C",
"/  c #1354A2",
"(  c #5536D9",
")  c #1E7FF7",
"_  c #5247F7",
"`  c #885788",
"'  c #A261A2",
"]  c #C95BAC",
"[  c #E060B9",
"{  c #FF5FC5",
"}  c #FF66CC",
"|  c #FF68CE",
" . c #E073CD",
".. c #FF6BD1",
"X. c #FF72D8",
"o. c #FF77DD",
"O. c #FF79DF",
"+. c #0EA7CB",
"@. c #1E80F7",
"#. c #848484",
"$. c #888888",
"%. c gray55",
"&. c #929292",
"*. c #979797",
"=. c gray60",
"-. c gray62",
";. c #A79999",
":. c #B59999",
">. c gray63",
",. c gray74",
"<. c #C79999",
"1. c #D79999",
"2. c #F69999",
"3. c #FF9999",
"4. c #D8AD82",
"5. c #F0BB99",
"6. c #F0B6A2",
"7. c #FFBBBB",
"8. c #FFBCB9",
"9. c #F0C090",
"0. c #FFCC99",
"q. c #FFC7A2",
"w. c #FFC7A4",
"e. c #D580D5",
"r. c #FF95D5",
"t. c #FFB3CC",
"y. c #E086E0",
"u. c #E88BE8",
"i. c #FF80E6",
"p. c #FF85EB",
"a. c #FF86EC",
"s. c #FF8DF3",
"d. c #FF8FF5",
"f. c #F090F0",
"g. c #F794F7",
"h. c #FF90F6",
"j. c #FF9DF7",
"k. c #FF92F8",
"l. c #FF94FA",
"z. c #FF97FD",
"x. c #FF99FF",
"c. c #FFA6E6",
"v. c #FFA8E2",
"b. c None",
/* pixels */
"f f f f f f : y y y y y y y y y y y y 5 b.b.b.b.b.",
"S S S S S w G 0.8.t.t.t.t.t.t.t.t.t.q.4.9 b.b.b.b.",
"D D D D D q 9.8.x.x.x.x.{ x.} k.l.x.c.0.n b.b.b.b.",
"F F F F F e 6.x.} k.x.x.x.u.m 6 e.s.l.v.n b., b.b.",
"E E E E E r 6.x.x.x.x.x.x.' b &.z ] k.c.n 6 =.j b.",
"Q T ; W Q t 6.x.x.x.x.} k.' b =.$.l 6 6 c &.=.j b.",
"R j =.= R - 6.x.x.a.x.x.g.` B =.=.=.=.=.;.>.*.b b.",
"L p #.j x $ 6.x.x.X.x.x.[ 8 =.-.-.A =.=.=.,.N =.3 ",
"P K i 0 =.3 6.o.i.x.x.x. .8 =.&.3 v *.C N k 3 *., ",
"U U U I * . 6.x.x.x.k.k.y.8 1.2.%.$.*.A =.A :.3.4 ",
"+.+.+.+.+.> 5.v.o.k.a.a.f.M H <.N 3 j $ k $ ;.J b.",
") @.) ) / @ 9.q.r.x.x.x.x.u.m #.#.C C C C V C b.b.",
"_ _ _ ^ b j & ! ! ! ! ! ! ! ! %       O $ @ b.b.b.",
"( ( ( , =.B a , k X b.b.b.b.@ g 6 b.@ N h b.b.b.b.",
"~ ~ ~ X , s d # , b.b.b.b.b.b., b.b.b., $ b.b.b.b."
};
